<?xml version="1.0" encoding="utf-8" standalone="no"?>
<!DOCTYPE svg PUBLIC "-//W3C//DTD SVG 1.1//EN"
  "http://www.w3.org/Graphics/SVG/1.1/DTD/svg11.dtd">
<svg xmlns:xlink="http://www.w3.org/1999/xlink" width="245.120313pt" height="183.35625pt" viewBox="0 0 245.120313 183.35625" xmlns="http://www.w3.org/2000/svg" version="1.1">
 <metadata>
  <rdf:RDF xmlns:dc="http://purl.org/dc/elements/1.1/" xmlns:cc="http://creativecommons.org/ns#" xmlns:rdf="http://www.w3.org/1999/02/22-rdf-syntax-ns#">
   <cc:Work>
    <dc:type rdf:resource="http://purl.org/dc/dcmitype/StillImage"/>
    <dc:date>2024-09-30T20:42:53.065634</dc:date>
    <dc:format>image/svg+xml</dc:format>
    <dc:creator>
     <cc:Agent>
      <dc:title>Matplotlib v3.7.2, https://matplotlib.org/</dc:title>
     </cc:Agent>
    </dc:creator>
   </cc:Work>
  </rdf:RDF>
 </metadata>
 <defs>
  <style type="text/css">*{stroke-linejoin: round; stroke-linecap: butt}</style>
 </defs>
 <g id="figure_1">
  <g id="patch_1">
   <path d="M 0 183.35625 
L 245.120313 183.35625 
L 245.120313 0 
L 0 0 
z
" style="fill: #ffffff"/>
  </g>
  <g id="axes_1">
   <g id="patch_2">
    <path d="M 42.620312 145.8 
L 237.920313 145.8 
L 237.920313 7.2 
L 42.620312 7.2 
z
" style="fill: #ffffff"/>
   </g>
   <g id="matplotlib.axis_1">
    <g id="xtick_1">
     <g id="line2d_1">
      <defs>
       <path id="m9539a3a867" d="M 0 0 
L 0 3.5 
" style="stroke: #000000; stroke-width: 0.8"/>
      </defs>
      <g>
       <use xlink:href="#m9539a3a867" x="88.39375" y="145.8" style="stroke: #000000; stroke-width: 0.8"/>
      </g>
     </g>
     <g id="text_1">
      <!-- −4 -->
      <g transform="translate(81.022656 160.398438) scale(0.1 -0.1)">
       <defs>
        <path id="DejaVuSans-2212" d="M 678 2272 
L 4684 2272 
L 4684 1741 
L 678 1741 
L 678 2272 
z
" transform="scale(0.015625)"/>
        <path id="DejaVuSans-34" d="M 2419 4116 
L 825 1625 
L 2419 1625 
L 2419 4116 
z
M 2253 4666 
L 3047 4666 
L 3047 1625 
L 3713 1625 
L 3713 1100 
L 3047 1100 
L 3047 0 
L 2419 0 
L 2419 1100 
L 313 1100 
L 313 1709 
L 2253 4666 
z
" transform="scale(0.015625)"/>
       </defs>
       <use xlink:href="#DejaVuSans-2212"/>
       <use xlink:href="#DejaVuSans-34" x="83.789062"/>
      </g>
     </g>
    </g>
    <g id="xtick_2">
     <g id="line2d_2">
      <g>
       <use xlink:href="#m9539a3a867" x="149.425" y="145.8" style="stroke: #000000; stroke-width: 0.8"/>
      </g>
     </g>
     <g id="text_2">
      <!-- −2 -->
      <g transform="translate(142.053907 160.398438) scale(0.1 -0.1)">
       <defs>
        <path id="DejaVuSans-32" d="M 1228 531 
L 3431 531 
L 3431 0 
L 469 0 
L 469 531 
Q 828 903 1448 1529 
Q 2069 2156 2228 2338 
Q 2531 2678 2651 2914 
Q 2772 3150 2772 3378 
Q 2772 3750 2511 3984 
Q 2250 4219 1831 4219 
Q 1534 4219 1204 4116 
Q 875 4013 500 3803 
L 500 4441 
Q 881 4594 1212 4672 
Q 1544 4750 1819 4750 
Q 2544 4750 2975 4387 
Q 3406 4025 3406 3419 
Q 3406 3131 3298 2873 
Q 3191 2616 2906 2266 
Q 2828 2175 2409 1742 
Q 1991 1309 1228 531 
z
" transform="scale(0.015625)"/>
       </defs>
       <use xlink:href="#DejaVuSans-2212"/>
       <use xlink:href="#DejaVuSans-32" x="83.789062"/>
      </g>
     </g>
    </g>
    <g id="xtick_3">
     <g id="line2d_3">
      <g>
       <use xlink:href="#m9539a3a867" x="210.456251" y="145.8" style="stroke: #000000; stroke-width: 0.8"/>
      </g>
     </g>
     <g id="text_3">
      <!-- 0 -->
      <g transform="translate(207.275001 160.398438) scale(0.1 -0.1)">
       <defs>
        <path id="DejaVuSans-30" d="M 2034 4250 
Q 1547 4250 1301 3770 
Q 1056 3291 1056 2328 
Q 1056 1369 1301 889 
Q 1547 409 2034 409 
Q 2525 409 2770 889 
Q 3016 1369 3016 2328 
Q 3016 3291 2770 3770 
Q 2525 4250 2034 4250 
z
M 2034 4750 
Q 2819 4750 3233 4129 
Q 3647 3509 3647 2328 
Q 3647 1150 3233 529 
Q 2819 -91 2034 -91 
Q 1250 -91 836 529 
Q 422 1150 422 2328 
Q 422 3509 836 4129 
Q 1250 4750 2034 4750 
z
" transform="scale(0.015625)"/>
       </defs>
       <use xlink:href="#DejaVuSans-30"/>
      </g>
     </g>
    </g>
    <g id="text_4">
     <!-- x1 -->
     <g transform="translate(134.129687 174.076563) scale(0.1 -0.1)">
      <defs>
       <path id="DejaVuSans-78" d="M 3513 3500 
L 2247 1797 
L 3578 0 
L 2900 0 
L 1881 1375 
L 863 0 
L 184 0 
L 1544 1831 
L 300 3500 
L 978 3500 
L 1906 2253 
L 2834 3500 
L 3513 3500 
z
" transform="scale(0.015625)"/>
       <path id="DejaVuSans-31" d="M 794 531 
L 1825 531 
L 1825 4091 
L 703 3866 
L 703 4441 
L 1819 4666 
L 2450 4666 
L 2450 531 
L 3481 531 
L 3481 0 
L 794 0 
L 794 531 
z
" transform="scale(0.015625)"/>
      </defs>
      <use xlink:href="#DejaVuSans-78"/>
      <use xlink:href="#DejaVuSans-31" x="59.179688"/>
     </g>
    </g>
   </g>
   <g id="matplotlib.axis_2">
    <g id="ytick_1">
     <g id="line2d_4">
      <defs>
       <path id="m34d2cbc1e9" d="M 0 0 
L -3.5 0 
" style="stroke: #000000; stroke-width: 0.8"/>
      </defs>
      <g>
       <use xlink:href="#m34d2cbc1e9" x="42.620312" y="145.8" style="stroke: #000000; stroke-width: 0.8"/>
      </g>
     </g>
     <g id="text_5">
      <!-- −3 -->
      <g transform="translate(20.878125 149.599219) scale(0.1 -0.1)">
       <defs>
        <path id="DejaVuSans-33" d="M 2597 2516 
Q 3050 2419 3304 2112 
Q 3559 1806 3559 1356 
Q 3559 666 3084 287 
Q 2609 -91 1734 -91 
Q 1441 -91 1130 -33 
Q 819 25 488 141 
L 488 750 
Q 750 597 1062 519 
Q 1375 441 1716 441 
Q 2309 441 2620 675 
Q 2931 909 2931 1356 
Q 2931 1769 2642 2001 
Q 2353 2234 1838 2234 
L 1294 2234 
L 1294 2753 
L 1863 2753 
Q 2328 2753 2575 2939 
Q 2822 3125 2822 3475 
Q 2822 3834 2567 4026 
Q 2313 4219 1838 4219 
Q 1578 4219 1281 4162 
Q 984 4106 628 3988 
L 628 4550 
Q 988 4650 1302 4700 
Q 1616 4750 1894 4750 
Q 2613 4750 3031 4423 
Q 3450 4097 3450 3541 
Q 3450 3153 3228 2886 
Q 3006 2619 2597 2516 
z
" transform="scale(0.015625)"/>
       </defs>
       <use xlink:href="#DejaVuSans-2212"/>
       <use xlink:href="#DejaVuSans-33" x="83.789062"/>
      </g>
     </g>
    </g>
    <g id="ytick_2">
     <g id="line2d_5">
      <g>
       <use xlink:href="#m34d2cbc1e9" x="42.620312" y="114.371429" style="stroke: #000000; stroke-width: 0.8"/>
      </g>
     </g>
     <g id="text_6">
      <!-- −2 -->
      <g transform="translate(20.878125 118.170647) scale(0.1 -0.1)">
       <use xlink:href="#DejaVuSans-2212"/>
       <use xlink:href="#DejaVuSans-32" x="83.789062"/>
      </g>
     </g>
    </g>
    <g id="ytick_3">
     <g id="line2d_6">
      <g>
       <use xlink:href="#m34d2cbc1e9" x="42.620312" y="82.942857" style="stroke: #000000; stroke-width: 0.8"/>
      </g>
     </g>
     <g id="text_7">
      <!-- −1 -->
      <g transform="translate(20.878125 86.742076) scale(0.1 -0.1)">
       <use xlink:href="#DejaVuSans-2212"/>
       <use xlink:href="#DejaVuSans-31" x="83.789062"/>
      </g>
     </g>
    </g>
    <g id="ytick_4">
     <g id="line2d_7">
      <g>
       <use xlink:href="#m34d2cbc1e9" x="42.620312" y="51.514286" style="stroke: #000000; stroke-width: 0.8"/>
      </g>
     </g>
     <g id="text_8">
      <!-- 0 -->
      <g transform="translate(29.257812 55.313504) scale(0.1 -0.1)">
       <use xlink:href="#DejaVuSans-30"/>
      </g>
     </g>
    </g>
    <g id="ytick_5">
     <g id="line2d_8">
      <g>
       <use xlink:href="#m34d2cbc1e9" x="42.620312" y="20.085714" style="stroke: #000000; stroke-width: 0.8"/>
      </g>
     </g>
     <g id="text_9">
      <!-- 1 -->
      <g transform="translate(29.257812 23.884933) scale(0.1 -0.1)">
       <use xlink:href="#DejaVuSans-31"/>
      </g>
     </g>
    </g>
    <g id="text_10">
     <!-- x2 -->
     <g transform="translate(14.798437 82.640625) rotate(-90) scale(0.1 -0.1)">
      <use xlink:href="#DejaVuSans-78"/>
      <use xlink:href="#DejaVuSans-32" x="59.179688"/>
     </g>
    </g>
   </g>
   <g id="line2d_9">
    <path d="M 57.878125 114.371429 
L 70.084375 13.8 
L 81.314125 74.142857 
L 91.645495 37.937143 
L 101.150356 59.660571 
L 109.894827 46.626514 
L 117.939741 54.446949 
L 125.341062 49.754688 
L 132.150277 52.570044 
L 138.414755 50.880831 
L 144.178075 51.894359 
L 149.480329 51.286242 
L 154.358402 51.651112 
L 158.84623 51.43219 
L 162.975032 51.563543 
L 166.773529 51.484731 
L 170.268147 51.532018 
L 173.483195 51.503646 
L 176.44104 51.520669 
L 179.162257 51.510455 
L 181.665776 51.516584 
" clip-path="url(#p84a19d2d35)" style="fill: none; stroke: #ff7f0e; stroke-width: 1.5; stroke-linecap: square"/>
    <defs>
     <path id="m3ee5c3d9db" d="M 0 3 
C 0.795609 3 1.55874 2.683901 2.12132 2.12132 
C 2.683901 1.55874 3 0.795609 3 0 
C 3 -0.795609 2.683901 -1.55874 2.12132 -2.12132 
C 1.55874 -2.683901 0.795609 -3 0 -3 
C -0.795609 -3 -1.55874 -2.683901 -2.12132 -2.12132 
C -2.683901 -1.55874 -3 -0.795609 -3 0 
C -3 0.795609 -2.683901 1.55874 -2.12132 2.12132 
C -1.55874 2.683901 -0.795609 3 0 3 
z
" style="stroke: #ff7f0e"/>
    </defs>
    <g clip-path="url(#p84a19d2d35)">
     <use xlink:href="#m3ee5c3d9db" x="57.878125" y="114.371429" style="fill: #ff7f0e; stroke: #ff7f0e"/>
     <use xlink:href="#m3ee5c3d9db" x="70.084375" y="13.8" style="fill: #ff7f0e; stroke: #ff7f0e"/>
     <use xlink:href="#m3ee5c3d9db" x="81.314125" y="74.142857" style="fill: #ff7f0e; stroke: #ff7f0e"/>
     <use xlink:href="#m3ee5c3d9db" x="91.645495" y="37.937143" style="fill: #ff7f0e; stroke: #ff7f0e"/>
     <use xlink:href="#m3ee5c3d9db" x="101.150356" y="59.660571" style="fill: #ff7f0e; stroke: #ff7f0e"/>
     <use xlink:href="#m3ee5c3d9db" x="109.894827" y="46.626514" style="fill: #ff7f0e; stroke: #ff7f0e"/>
     <use xlink:href="#m3ee5c3d9db" x="117.939741" y="54.446949" style="fill: #ff7f0e; stroke: #ff7f0e"/>
     <use xlink:href="#m3ee5c3d9db" x="125.341062" y="49.754688" style="fill: #ff7f0e; stroke: #ff7f0e"/>
     <use xlink:href="#m3ee5c3d9db" x="132.150277" y="52.570044" style="fill: #ff7f0e; stroke: #ff7f0e"/>
     <use xlink:href="#m3ee5c3d9db" x="138.414755" y="50.880831" style="fill: #ff7f0e; stroke: #ff7f0e"/>
     <use xlink:href="#m3ee5c3d9db" x="144.178075" y="51.894359" style="fill: #ff7f0e; stroke: #ff7f0e"/>
     <use xlink:href="#m3ee5c3d9db" x="149.480329" y="51.286242" style="fill: #ff7f0e; stroke: #ff7f0e"/>
     <use xlink:href="#m3ee5c3d9db" x="154.358402" y="51.651112" style="fill: #ff7f0e; stroke: #ff7f0e"/>
     <use xlink:href="#m3ee5c3d9db" x="158.84623" y="51.43219" style="fill: #ff7f0e; stroke: #ff7f0e"/>
     <use xlink:href="#m3ee5c3d9db" x="162.975032" y="51.563543" style="fill: #ff7f0e; stroke: #ff7f0e"/>
     <use xlink:href="#m3ee5c3d9db" x="166.773529" y="51.484731" style="fill: #ff7f0e; stroke: #ff7f0e"/>
     <use xlink:href="#m3ee5c3d9db" x="170.268147" y="51.532018" style="fill: #ff7f0e; stroke: #ff7f0e"/>
     <use xlink:href="#m3ee5c3d9db" x="173.483195" y="51.503646" style="fill: #ff7f0e; stroke: #ff7f0e"/>
     <use xlink:href="#m3ee5c3d9db" x="176.44104" y="51.520669" style="fill: #ff7f0e; stroke: #ff7f0e"/>
     <use xlink:href="#m3ee5c3d9db" x="179.162257" y="51.510455" style="fill: #ff7f0e; stroke: #ff7f0e"/>
     <use xlink:href="#m3ee5c3d9db" x="181.665776" y="51.516584" style="fill: #ff7f0e; stroke: #ff7f0e"/>
    </g>
   </g>
   <g id="PathCollection_1"/>
   <g id="PathCollection_2">
    <path d="M 97.100868 23.228572 
L 94.496869 23.82017 
L 91.44531 24.531934 
L 88.393757 25.262183 
L 85.342191 26.010924 
L 83.908323 26.371428 
L 82.290631 26.832379 
L 79.239071 27.722856 
L 76.187512 28.634283 
L 73.307377 29.514286 
L 73.135938 29.574727 
L 70.084378 30.674725 
L 67.032818 31.798899 
L 64.752171 32.657142 
L 63.981244 33.000002 
L 60.929685 34.385714 
L 57.878125 35.8 
L 57.878125 35.8 
L 54.826565 37.563488 
L 52.48604 38.942857 
L 51.775006 39.481626 
L 48.723432 41.838782 
L 48.409729 42.085714 
L 45.671872 45.102859 
L 45.55989 45.228571 
L 43.880133 48.371429 
L 43.320214 51.514286 
L 43.880133 54.657144 
L 45.55989 57.800001 
L 45.671872 57.925713 
L 48.409729 60.942858 
L 48.723432 61.189789 
L 51.775006 63.546946 
L 52.486042 64.085715 
L 54.826565 65.465081 
L 57.878125 67.228571 
L 57.878125 67.228571 
L 60.929685 68.642857 
L 63.981244 70.02857 
L 64.752171 70.371429 
L 67.032818 71.229672 
L 70.084378 72.353847 
L 73.135938 73.453844 
L 73.307377 73.514285 
L 76.187512 74.394289 
L 79.239071 75.305716 
L 82.290631 76.196193 
L 83.908319 76.657141 
L 85.342191 77.017646 
L 88.393757 77.766388 
L 91.44531 78.496637 
L 94.496869 79.208402 
L 97.100868 79.799999 
L 97.548436 79.890978 
L 100.599996 80.494737 
L 103.651563 81.081956 
L 106.703122 81.652631 
L 109.754682 82.206765 
L 112.806249 82.74436 
L 113.968755 82.942857 
L 115.857816 83.234694 
L 118.909375 83.691156 
L 121.960942 84.132654 
L 125.012502 84.559184 
L 128.064069 84.97075 
L 131.115628 85.367348 
L 134.167188 85.74898 
L 136.969651 86.085715 
L 137.218755 86.113044 
L 140.270314 86.434161 
L 143.321874 86.741615 
L 146.373441 87.035404 
L 149.425 87.315528 
L 152.476564 87.581987 
L 155.528127 87.834784 
L 158.57969 88.073913 
L 161.631253 88.299379 
L 164.682813 88.511181 
L 167.734376 88.709316 
L 170.785939 88.89379 
L 173.837499 89.064596 
L 176.889062 89.221739 
L 177.034329 89.228569 
L 179.940626 89.354286 
L 182.992189 89.473714 
L 186.04375 89.580572 
L 189.095313 89.674857 
L 192.146877 89.756572 
L 195.198438 89.825714 
L 198.250001 89.882286 
L 201.301564 89.926286 
L 204.353126 89.957715 
L 207.404689 89.976572 
L 210.456251 89.982857 
L 213.507813 89.976572 
L 216.559376 89.957715 
L 219.610939 89.926286 
L 222.662501 89.882286 
L 225.714063 89.825714 
L 228.765626 89.756572 
L 231.817188 89.674857 
L 234.868751 89.580572 
L 237.920313 89.473714 
" clip-path="url(#p84a19d2d35)" style="fill: none; stroke: #1f77b4; stroke-width: 1.5"/>
   </g>
   <g id="PathCollection_3">
    <path d="M 42.620312 89.825714 
L 45.671872 90.510858 
L 48.723432 91.183426 
L 51.775006 91.843429 
L 54.263642 92.371427 
L 54.826565 92.482012 
L 57.878125 93.069841 
L 60.929685 93.646031 
L 63.981244 94.210581 
L 67.032818 94.763493 
L 70.084378 95.304763 
L 71.29158 95.514285 
L 73.135938 95.812316 
L 76.187512 96.294583 
L 79.239071 96.766011 
L 82.290631 97.226602 
L 85.342191 97.676356 
L 88.393757 98.115272 
L 91.44531 98.54335 
L 92.277553 98.657143 
L 94.496869 98.941012 
L 97.548436 99.321198 
L 100.599996 99.691244 
L 103.651563 100.051152 
L 106.703122 100.40092 
L 109.754682 100.740551 
L 112.806249 101.070044 
L 115.857816 101.3894 
L 118.909375 101.698616 
L 119.943828 101.800001 
L 121.960942 101.985713 
L 125.012502 102.257142 
L 128.064069 102.519047 
L 131.115628 102.771427 
L 134.167188 103.014285 
L 137.218755 103.24762 
L 140.270314 103.471429 
L 143.321874 103.685713 
L 146.373441 103.890476 
L 149.425 104.085714 
L 152.476564 104.271428 
L 155.528127 104.44762 
L 158.57969 104.614286 
L 161.631253 104.771429 
L 164.682813 104.919049 
L 165.20896 104.942859 
L 167.734376 105.050612 
L 170.785939 105.171837 
L 173.837499 105.284082 
L 176.889062 105.387348 
L 179.940626 105.481634 
L 182.992189 105.56694 
L 186.04375 105.643265 
L 189.095313 105.710614 
L 192.146877 105.768981 
L 195.198438 105.818367 
L 198.250001 105.858777 
L 201.301564 105.890205 
L 204.353126 105.912653 
L 207.404689 105.926123 
L 210.456251 105.930613 
L 213.507813 105.926123 
L 216.559376 105.912653 
L 219.610939 105.890205 
L 222.662501 105.858777 
L 225.714063 105.818367 
L 228.765626 105.768981 
L 231.817188 105.710614 
L 234.868751 105.643265 
L 237.920313 105.56694 
" clip-path="url(#p84a19d2d35)" style="fill: none; stroke: #1f77b4; stroke-width: 1.5"/>
   </g>
   <g id="PathCollection_4">
    <path d="M 42.620312 105.818367 
L 45.671872 106.307755 
L 48.723432 106.788163 
L 51.775006 107.259594 
L 54.826565 107.722041 
L 57.27387 108.085717 
L 57.878125 108.170656 
L 60.929685 108.59112 
L 63.981244 109.003089 
L 67.032818 109.406564 
L 70.084378 109.801545 
L 73.135938 110.18803 
L 76.187512 110.566025 
L 79.239071 110.935523 
L 81.716227 111.228574 
L 82.290631 111.293042 
L 85.342191 111.627472 
L 88.393757 111.953847 
L 91.44531 112.27216 
L 94.496869 112.582418 
L 97.548436 112.884615 
L 100.599996 113.178753 
L 103.651563 113.464834 
L 106.703122 113.742857 
L 109.754682 114.012821 
L 112.806249 114.274725 
L 113.968764 114.371429 
L 115.857816 114.520904 
L 118.909375 114.754705 
L 121.960942 114.980837 
L 125.012502 115.199301 
L 128.064069 115.410104 
L 131.115628 115.613241 
L 134.167188 115.80871 
L 137.218755 115.996514 
L 140.270314 116.176653 
L 143.321874 116.349127 
L 146.373441 116.513936 
L 149.425 116.67108 
L 152.476564 116.820556 
L 155.528127 116.962367 
L 158.57969 117.096516 
L 161.631253 117.222997 
L 164.682813 117.341809 
L 167.734376 117.45296 
L 169.542874 117.51429 
L 170.785939 117.554485 
L 173.837499 117.645846 
L 176.889062 117.729898 
L 179.940626 117.806642 
L 182.992189 117.876077 
L 186.04375 117.938204 
L 189.095313 117.993023 
L 192.146877 118.04053 
L 195.198438 118.080731 
L 198.250001 118.113621 
L 201.301564 118.139202 
L 204.353126 118.157475 
L 207.404689 118.168436 
L 210.456251 118.172092 
L 213.507813 118.168436 
L 216.559376 118.157475 
L 219.610939 118.139202 
L 222.662501 118.113621 
L 225.714063 118.080731 
L 228.765626 118.04053 
L 231.817188 117.993023 
L 234.868751 117.938204 
L 237.920313 117.876077 
" clip-path="url(#p84a19d2d35)" style="fill: none; stroke: #1f77b4; stroke-width: 1.5"/>
   </g>
   <g id="PathCollection_5">
    <path d="M 42.620312 118.080731 
L 45.671872 118.479068 
L 48.723432 118.870099 
L 51.775006 119.253822 
L 54.826565 119.630233 
L 57.878125 119.999336 
L 60.929685 120.36113 
L 63.477901 120.657144 
L 63.981244 120.713017 
L 67.032818 121.044763 
L 70.084378 121.369523 
L 73.135938 121.687303 
L 76.187512 121.998095 
L 79.239071 122.301904 
L 82.290631 122.59873 
L 85.342191 122.888572 
L 88.393757 123.17143 
L 91.44531 123.447301 
L 94.496869 123.716188 
L 95.47338 123.799999 
L 97.548436 123.970514 
L 100.599996 124.214587 
L 103.651563 124.451974 
L 106.703122 124.682674 
L 109.754682 124.906687 
L 112.806249 125.124011 
L 115.857816 125.334649 
L 118.909375 125.538603 
L 121.960942 125.735868 
L 125.012502 125.926443 
L 128.064069 126.110335 
L 131.115628 126.28754 
L 134.167188 126.458056 
L 137.218755 126.621885 
L 140.270314 126.779028 
L 143.321874 126.929484 
L 143.605786 126.94286 
L 146.373441 127.067932 
L 149.425 127.19942 
L 152.476564 127.324491 
L 155.528127 127.443149 
L 158.57969 127.555396 
L 161.631253 127.661227 
L 164.682813 127.760641 
L 167.734376 127.853645 
L 170.785939 127.940235 
L 173.837499 128.020409 
L 176.889062 128.094169 
L 179.940626 128.161516 
L 182.992189 128.222449 
L 186.04375 128.276968 
L 189.095313 128.325074 
L 192.146877 128.366764 
L 195.198438 128.402043 
L 198.250001 128.430905 
L 201.301564 128.453354 
L 204.353126 128.469389 
L 207.404689 128.479008 
L 210.456251 128.482217 
L 213.507813 128.479008 
L 216.559376 128.469389 
L 219.610939 128.453354 
L 222.662501 128.430905 
L 225.714063 128.402043 
L 228.765626 128.366764 
L 231.817188 128.325074 
L 234.868751 128.276968 
L 237.920313 128.222449 
" clip-path="url(#p84a19d2d35)" style="fill: none; stroke: #1f77b4; stroke-width: 1.5"/>
   </g>
   <g id="PathCollection_6">
    <path d="M 42.620312 128.402043 
L 45.671872 128.751603 
L 48.723432 129.094753 
L 51.775006 129.431489 
L 54.826565 129.761808 
L 57.878125 130.085714 
L 57.878125 130.085714 
L 60.929685 130.390756 
L 63.981244 130.689636 
L 67.032818 130.982354 
L 70.084378 131.268908 
L 73.135938 131.549302 
L 76.187512 131.823531 
L 79.239071 132.091598 
L 82.290631 132.353503 
L 85.342191 132.609246 
L 88.393757 132.858827 
L 91.44531 133.102243 
L 93.070112 133.228568 
L 94.496869 133.335311 
L 97.548436 133.557682 
L 100.599996 133.774123 
L 103.651563 133.984636 
L 106.703122 134.189218 
L 109.754682 134.387872 
L 112.806249 134.580593 
L 115.857816 134.767386 
L 118.909375 134.948249 
L 121.960942 135.123182 
L 125.012502 135.292182 
L 128.064069 135.455255 
L 131.115628 135.612399 
L 134.167188 135.763611 
L 137.218755 135.908893 
L 140.270314 136.048246 
L 143.321874 136.18167 
L 146.373441 136.309163 
L 147.936485 136.37143 
L 149.425 136.428571 
L 152.476564 136.539999 
L 155.528127 136.645712 
L 158.57969 136.745715 
L 161.631253 136.84 
L 164.682813 136.92857 
L 167.734376 137.011428 
L 170.785939 137.088572 
L 173.837499 137.159999 
L 176.889062 137.225713 
L 179.940626 137.285713 
L 182.992189 137.339998 
L 186.04375 137.38857 
L 189.095313 137.431429 
L 192.146877 137.46857 
L 195.198438 137.500001 
L 198.250001 137.525714 
L 201.301564 137.545714 
L 204.353126 137.56 
L 207.404689 137.56857 
L 210.456251 137.571428 
L 213.507813 137.56857 
L 216.559376 137.56 
L 219.610939 137.545714 
L 222.662501 137.525714 
L 225.714063 137.500001 
L 228.765626 137.46857 
L 231.817188 137.431429 
L 234.868751 137.38857 
L 237.920313 137.339998 
" clip-path="url(#p84a19d2d35)" style="fill: none; stroke: #1f77b4; stroke-width: 1.5"/>
   </g>
   <g id="PathCollection_7">
    <path d="M 42.620312 137.499998 
L 45.671872 137.81143 
L 48.723432 138.11714 
L 51.775006 138.417144 
L 54.826565 138.711432 
L 57.878125 138.999997 
L 60.929685 139.282857 
L 63.477871 139.514284 
L 63.981244 139.558396 
L 67.032818 139.8203 
L 70.084378 140.076692 
L 73.135938 140.327568 
L 76.187512 140.572933 
L 79.239071 140.812783 
L 82.290631 141.047119 
L 85.342191 141.275939 
L 88.393757 141.499247 
L 91.44531 141.717041 
L 94.496869 141.929322 
L 97.548436 142.13609 
L 100.599996 142.337343 
L 103.651563 142.53308 
L 105.641791 142.657146 
L 106.703122 142.721064 
L 109.754682 142.899513 
L 112.806249 143.072638 
L 115.857816 143.240434 
L 118.909375 143.402906 
L 121.960942 143.560049 
L 125.012502 143.711863 
L 128.064069 143.858352 
L 131.115628 143.999513 
L 134.167188 144.13535 
L 137.218755 144.265858 
L 140.270314 144.391042 
L 143.321874 144.510897 
L 146.373441 144.625423 
L 149.425 144.734625 
L 152.476564 144.838498 
L 155.528127 144.937047 
L 158.57969 145.030267 
L 161.631253 145.118158 
L 164.682813 145.200725 
L 167.734376 145.277968 
L 170.785939 145.349877 
L 173.837499 145.416467 
L 176.889062 145.477723 
L 179.940626 145.533655 
L 182.992189 145.584263 
L 186.04375 145.629542 
L 189.095313 145.669492 
L 192.146877 145.704118 
L 195.198438 145.733415 
L 198.250001 145.757383 
L 201.301564 145.776027 
L 204.353126 145.789347 
L 207.404689 145.797338 
L 210.456251 145.8 
" clip-path="url(#p84a19d2d35)" style="fill: none; stroke: #1f77b4; stroke-width: 1.5"/>
    <path d="M 210.456251 145.8 
L 213.507813 145.797338 
L 216.559376 145.789347 
L 219.610939 145.776027 
L 222.662501 145.757383 
L 225.714063 145.733415 
L 228.765626 145.704118 
L 231.817188 145.669492 
L 234.868751 145.629542 
L 237.920313 145.584263 
" clip-path="url(#p84a19d2d35)" style="fill: none; stroke: #1f77b4; stroke-width: 1.5"/>
   </g>
   <g id="PathCollection_8">
    <path d="M 42.620312 145.733415 
L 43.320206 145.8 
" clip-path="url(#p84a19d2d35)" style="fill: none; stroke: #1f77b4; stroke-width: 1.5"/>
   </g>
   <g id="PathCollection_9"/>
   <g id="patch_3">
    <path d="M 42.620312 145.8 
L 42.620312 7.2 
" style="fill: none; stroke: #000000; stroke-width: 0.8; stroke-linejoin: miter; stroke-linecap: square"/>
   </g>
   <g id="patch_4">
    <path d="M 237.920313 145.8 
L 237.920313 7.2 
" style="fill: none; stroke: #000000; stroke-width: 0.8; stroke-linejoin: miter; stroke-linecap: square"/>
   </g>
   <g id="patch_5">
    <path d="M 42.620312 145.8 
L 237.920313 145.8 
" style="fill: none; stroke: #000000; stroke-width: 0.8; stroke-linejoin: miter; stroke-linecap: square"/>
   </g>
   <g id="patch_6">
    <path d="M 42.620312 7.2 
L 237.920313 7.2 
" style="fill: none; stroke: #000000; stroke-width: 0.8; stroke-linejoin: miter; stroke-linecap: square"/>
   </g>
  </g>
 </g>
 <defs>
  <clipPath id="p84a19d2d35">
   <rect x="42.620312" y="7.2" width="195.3" height="138.6"/>
  </clipPath>
 </defs>
</svg>
