<?xml version="1.0" encoding="utf-8" standalone="no"?>
<!DOCTYPE svg PUBLIC "-//W3C//DTD SVG 1.1//EN"
  "http://www.w3.org/Graphics/SVG/1.1/DTD/svg11.dtd">
<svg xmlns:xlink="http://www.w3.org/1999/xlink" width="245.120313pt" height="183.35625pt" viewBox="0 0 245.120313 183.35625" xmlns="http://www.w3.org/2000/svg" version="1.1">
 <metadata>
  <rdf:RDF xmlns:dc="http://purl.org/dc/elements/1.1/" xmlns:cc="http://creativecommons.org/ns#" xmlns:rdf="http://www.w3.org/1999/02/22-rdf-syntax-ns#">
   <cc:Work>
    <dc:type rdf:resource="http://purl.org/dc/dcmitype/StillImage"/>
    <dc:date>2024-09-30T20:56:42.569129</dc:date>
    <dc:format>image/svg+xml</dc:format>
    <dc:creator>
     <cc:Agent>
      <dc:title>Matplotlib v3.7.2, https://matplotlib.org/</dc:title>
     </cc:Agent>
    </dc:creator>
   </cc:Work>
  </rdf:RDF>
 </metadata>
 <defs>
  <style type="text/css">*{stroke-linejoin: round; stroke-linecap: butt}</style>
 </defs>
 <g id="figure_1">
  <g id="patch_1">
   <path d="M 0 183.35625 
L 245.120313 183.35625 
L 245.120313 0 
L 0 0 
z
" style="fill: #ffffff"/>
  </g>
  <g id="axes_1">
   <g id="patch_2">
    <path d="M 42.620312 145.8 
L 237.920313 145.8 
L 237.920313 7.2 
L 42.620312 7.2 
z
" style="fill: #ffffff"/>
   </g>
   <g id="matplotlib.axis_1">
    <g id="xtick_1">
     <g id="line2d_1">
      <defs>
       <path id="m922a879c9c" d="M 0 0 
L 0 3.5 
" style="stroke: #000000; stroke-width: 0.8"/>
      </defs>
      <g>
       <use xlink:href="#m922a879c9c" x="88.39375" y="145.8" style="stroke: #000000; stroke-width: 0.8"/>
      </g>
     </g>
     <g id="text_1">
      <!-- −4 -->
      <g transform="translate(81.022656 160.398438) scale(0.1 -0.1)">
       <defs>
        <path id="DejaVuSans-2212" d="M 678 2272 
L 4684 2272 
L 4684 1741 
L 678 1741 
L 678 2272 
z
" transform="scale(0.015625)"/>
        <path id="DejaVuSans-34" d="M 2419 4116 
L 825 1625 
L 2419 1625 
L 2419 4116 
z
M 2253 4666 
L 3047 4666 
L 3047 1625 
L 3713 1625 
L 3713 1100 
L 3047 1100 
L 3047 0 
L 2419 0 
L 2419 1100 
L 313 1100 
L 313 1709 
L 2253 4666 
z
" transform="scale(0.015625)"/>
       </defs>
       <use xlink:href="#DejaVuSans-2212"/>
       <use xlink:href="#DejaVuSans-34" x="83.789062"/>
      </g>
     </g>
    </g>
    <g id="xtick_2">
     <g id="line2d_2">
      <g>
       <use xlink:href="#m922a879c9c" x="149.425" y="145.8" style="stroke: #000000; stroke-width: 0.8"/>
      </g>
     </g>
     <g id="text_2">
      <!-- −2 -->
      <g transform="translate(142.053907 160.398438) scale(0.1 -0.1)">
       <defs>
        <path id="DejaVuSans-32" d="M 1228 531 
L 3431 531 
L 3431 0 
L 469 0 
L 469 531 
Q 828 903 1448 1529 
Q 2069 2156 2228 2338 
Q 2531 2678 2651 2914 
Q 2772 3150 2772 3378 
Q 2772 3750 2511 3984 
Q 2250 4219 1831 4219 
Q 1534 4219 1204 4116 
Q 875 4013 500 3803 
L 500 4441 
Q 881 4594 1212 4672 
Q 1544 4750 1819 4750 
Q 2544 4750 2975 4387 
Q 3406 4025 3406 3419 
Q 3406 3131 3298 2873 
Q 3191 2616 2906 2266 
Q 2828 2175 2409 1742 
Q 1991 1309 1228 531 
z
" transform="scale(0.015625)"/>
       </defs>
       <use xlink:href="#DejaVuSans-2212"/>
       <use xlink:href="#DejaVuSans-32" x="83.789062"/>
      </g>
     </g>
    </g>
    <g id="xtick_3">
     <g id="line2d_3">
      <g>
       <use xlink:href="#m922a879c9c" x="210.456251" y="145.8" style="stroke: #000000; stroke-width: 0.8"/>
      </g>
     </g>
     <g id="text_3">
      <!-- 0 -->
      <g transform="translate(207.275001 160.398438) scale(0.1 -0.1)">
       <defs>
        <path id="DejaVuSans-30" d="M 2034 4250 
Q 1547 4250 1301 3770 
Q 1056 3291 1056 2328 
Q 1056 1369 1301 889 
Q 1547 409 2034 409 
Q 2525 409 2770 889 
Q 3016 1369 3016 2328 
Q 3016 3291 2770 3770 
Q 2525 4250 2034 4250 
z
M 2034 4750 
Q 2819 4750 3233 4129 
Q 3647 3509 3647 2328 
Q 3647 1150 3233 529 
Q 2819 -91 2034 -91 
Q 1250 -91 836 529 
Q 422 1150 422 2328 
Q 422 3509 836 4129 
Q 1250 4750 2034 4750 
z
" transform="scale(0.015625)"/>
       </defs>
       <use xlink:href="#DejaVuSans-30"/>
      </g>
     </g>
    </g>
    <g id="text_4">
     <!-- x1 -->
     <g transform="translate(134.129687 174.076563) scale(0.1 -0.1)">
      <defs>
       <path id="DejaVuSans-78" d="M 3513 3500 
L 2247 1797 
L 3578 0 
L 2900 0 
L 1881 1375 
L 863 0 
L 184 0 
L 1544 1831 
L 300 3500 
L 978 3500 
L 1906 2253 
L 2834 3500 
L 3513 3500 
z
" transform="scale(0.015625)"/>
       <path id="DejaVuSans-31" d="M 794 531 
L 1825 531 
L 1825 4091 
L 703 3866 
L 703 4441 
L 1819 4666 
L 2450 4666 
L 2450 531 
L 3481 531 
L 3481 0 
L 794 0 
L 794 531 
z
" transform="scale(0.015625)"/>
      </defs>
      <use xlink:href="#DejaVuSans-78"/>
      <use xlink:href="#DejaVuSans-31" x="59.179688"/>
     </g>
    </g>
   </g>
   <g id="matplotlib.axis_2">
    <g id="ytick_1">
     <g id="line2d_4">
      <defs>
       <path id="med24c7804d" d="M 0 0 
L -3.5 0 
" style="stroke: #000000; stroke-width: 0.8"/>
      </defs>
      <g>
       <use xlink:href="#med24c7804d" x="42.620312" y="123.041379" style="stroke: #000000; stroke-width: 0.8"/>
      </g>
     </g>
     <g id="text_5">
      <!-- −2 -->
      <g transform="translate(20.878125 126.840598) scale(0.1 -0.1)">
       <use xlink:href="#DejaVuSans-2212"/>
       <use xlink:href="#DejaVuSans-32" x="83.789062"/>
      </g>
     </g>
    </g>
    <g id="ytick_2">
     <g id="line2d_5">
      <g>
       <use xlink:href="#med24c7804d" x="42.620312" y="77.524138" style="stroke: #000000; stroke-width: 0.8"/>
      </g>
     </g>
     <g id="text_6">
      <!-- 0 -->
      <g transform="translate(29.257812 81.323357) scale(0.1 -0.1)">
       <use xlink:href="#DejaVuSans-30"/>
      </g>
     </g>
    </g>
    <g id="ytick_3">
     <g id="line2d_6">
      <g>
       <use xlink:href="#med24c7804d" x="42.620312" y="32.006897" style="stroke: #000000; stroke-width: 0.8"/>
      </g>
     </g>
     <g id="text_7">
      <!-- 2 -->
      <g transform="translate(29.257812 35.806115) scale(0.1 -0.1)">
       <use xlink:href="#DejaVuSans-32"/>
      </g>
     </g>
    </g>
    <g id="text_8">
     <!-- x2 -->
     <g transform="translate(14.798437 82.640625) rotate(-90) scale(0.1 -0.1)">
      <use xlink:href="#DejaVuSans-78"/>
      <use xlink:href="#DejaVuSans-32" x="59.179688"/>
     </g>
    </g>
   </g>
   <g id="line2d_7">
    <path d="M 57.878125 123.041379 
L 76.1875 13.8 
L 101.454438 112.117241 
L 127.168124 78.252414 
L 150.019542 59.572138 
L 168.697657 93.3168 
L 183.047745 72.286742 
L 193.51181 74.341463 
L 200.777175 83.007243 
L 205.571347 74.180681 
L 208.554621 77.791697 
L 210.274454 78.955064 
L 211.156186 76.102525 
L 211.51306 78.088126 
L 211.564679 77.727355 
L 211.457478 77.059249 
L 211.28373 77.84093 
L 211.097558 77.47147 
L 210.927516 77.413143 
L 210.785942 77.650367 
L 210.675593 77.466029 
" clip-path="url(#pacdbca3f6c)" style="fill: none; stroke: #ff7f0e; stroke-width: 1.5; stroke-linecap: square"/>
    <defs>
     <path id="m3d82d4ab93" d="M 0 3 
C 0.795609 3 1.55874 2.683901 2.12132 2.12132 
C 2.683901 1.55874 3 0.795609 3 0 
C 3 -0.795609 2.683901 -1.55874 2.12132 -2.12132 
C 1.55874 -2.683901 0.795609 -3 0 -3 
C -0.795609 -3 -1.55874 -2.683901 -2.12132 -2.12132 
C -2.683901 -1.55874 -3 -0.795609 -3 0 
C -3 0.795609 -2.683901 1.55874 -2.12132 2.12132 
C -1.55874 2.683901 -0.795609 3 0 3 
z
" style="stroke: #ff7f0e"/>
    </defs>
    <g clip-path="url(#pacdbca3f6c)">
     <use xlink:href="#m3d82d4ab93" x="57.878125" y="123.041379" style="fill: #ff7f0e; stroke: #ff7f0e"/>
     <use xlink:href="#m3d82d4ab93" x="76.1875" y="13.8" style="fill: #ff7f0e; stroke: #ff7f0e"/>
     <use xlink:href="#m3d82d4ab93" x="101.454438" y="112.117241" style="fill: #ff7f0e; stroke: #ff7f0e"/>
     <use xlink:href="#m3d82d4ab93" x="127.168124" y="78.252414" style="fill: #ff7f0e; stroke: #ff7f0e"/>
     <use xlink:href="#m3d82d4ab93" x="150.019542" y="59.572138" style="fill: #ff7f0e; stroke: #ff7f0e"/>
     <use xlink:href="#m3d82d4ab93" x="168.697657" y="93.3168" style="fill: #ff7f0e; stroke: #ff7f0e"/>
     <use xlink:href="#m3d82d4ab93" x="183.047745" y="72.286742" style="fill: #ff7f0e; stroke: #ff7f0e"/>
     <use xlink:href="#m3d82d4ab93" x="193.51181" y="74.341463" style="fill: #ff7f0e; stroke: #ff7f0e"/>
     <use xlink:href="#m3d82d4ab93" x="200.777175" y="83.007243" style="fill: #ff7f0e; stroke: #ff7f0e"/>
     <use xlink:href="#m3d82d4ab93" x="205.571347" y="74.180681" style="fill: #ff7f0e; stroke: #ff7f0e"/>
     <use xlink:href="#m3d82d4ab93" x="208.554621" y="77.791697" style="fill: #ff7f0e; stroke: #ff7f0e"/>
     <use xlink:href="#m3d82d4ab93" x="210.274454" y="78.955064" style="fill: #ff7f0e; stroke: #ff7f0e"/>
     <use xlink:href="#m3d82d4ab93" x="211.156186" y="76.102525" style="fill: #ff7f0e; stroke: #ff7f0e"/>
     <use xlink:href="#m3d82d4ab93" x="211.51306" y="78.088126" style="fill: #ff7f0e; stroke: #ff7f0e"/>
     <use xlink:href="#m3d82d4ab93" x="211.564679" y="77.727355" style="fill: #ff7f0e; stroke: #ff7f0e"/>
     <use xlink:href="#m3d82d4ab93" x="211.457478" y="77.059249" style="fill: #ff7f0e; stroke: #ff7f0e"/>
     <use xlink:href="#m3d82d4ab93" x="211.28373" y="77.84093" style="fill: #ff7f0e; stroke: #ff7f0e"/>
     <use xlink:href="#m3d82d4ab93" x="211.097558" y="77.47147" style="fill: #ff7f0e; stroke: #ff7f0e"/>
     <use xlink:href="#m3d82d4ab93" x="210.927516" y="77.413143" style="fill: #ff7f0e; stroke: #ff7f0e"/>
     <use xlink:href="#m3d82d4ab93" x="210.785942" y="77.650367" style="fill: #ff7f0e; stroke: #ff7f0e"/>
     <use xlink:href="#m3d82d4ab93" x="210.675593" y="77.466029" style="fill: #ff7f0e; stroke: #ff7f0e"/>
    </g>
   </g>
   <g id="PathCollection_1"/>
   <g id="PathCollection_2">
    <path d="M 97.100868 57.04138 
L 94.496869 57.469778 
L 91.44531 57.985193 
L 88.393757 58.513995 
L 85.342191 59.056186 
L 83.908323 59.317241 
L 82.290631 59.651033 
L 79.239071 60.295861 
L 76.187512 60.95586 
L 73.307377 61.593104 
L 73.135938 61.636871 
L 70.084378 62.433421 
L 67.032818 63.247479 
L 64.752171 63.868965 
L 63.981244 64.117243 
L 60.929685 65.12069 
L 57.878125 66.144828 
L 57.878125 66.144828 
L 54.826565 67.421836 
L 52.48604 68.42069 
L 51.775006 68.810833 
L 48.723432 70.517739 
L 48.409729 70.696551 
L 45.671872 72.881381 
L 45.55989 72.972414 
L 43.880133 75.248276 
L 43.320214 77.524138 
L 43.880133 79.800001 
L 45.55989 82.075862 
L 45.671872 82.166896 
L 48.409729 84.351724 
L 48.723432 84.530537 
L 51.775006 86.237444 
L 52.486042 86.627587 
L 54.826565 87.626438 
L 57.878125 88.903448 
L 57.878125 88.903448 
L 60.929685 89.927586 
L 63.981244 90.931033 
L 64.752171 91.179311 
L 67.032818 91.800797 
L 70.084378 92.614854 
L 73.135938 93.411405 
L 73.307377 93.455172 
L 76.187512 94.092416 
L 79.239071 94.752415 
L 82.290631 95.397243 
L 83.908319 95.731033 
L 85.342191 95.992089 
L 88.393757 96.534281 
L 91.44531 97.063082 
L 94.496869 97.578498 
L 97.100868 98.006896 
L 97.548436 98.072777 
L 100.599996 98.509982 
L 103.651563 98.935209 
L 106.703122 99.348457 
L 109.754682 99.749726 
L 112.806249 100.139019 
L 113.968755 100.282759 
L 115.857816 100.494089 
L 118.909375 100.82463 
L 121.960942 101.144336 
L 125.012502 101.453202 
L 128.064069 101.751232 
L 131.115628 102.038424 
L 134.167188 102.314778 
L 136.969651 102.558621 
L 137.218755 102.578411 
L 140.270314 102.810944 
L 143.321874 103.033584 
L 146.373441 103.246327 
L 149.425 103.449175 
L 152.476564 103.642129 
L 155.528127 103.825188 
L 158.57969 103.998351 
L 161.631253 104.161619 
L 164.682813 104.314993 
L 167.734376 104.45847 
L 170.785939 104.592055 
L 173.837499 104.715742 
L 176.889062 104.829535 
L 177.034329 104.834481 
L 179.940626 104.925518 
L 182.992189 105.012 
L 186.04375 105.08938 
L 189.095313 105.157655 
L 192.146877 105.216828 
L 195.198438 105.266896 
L 198.250001 105.307862 
L 201.301564 105.339724 
L 204.353126 105.362483 
L 207.404689 105.376138 
L 210.456251 105.38069 
L 213.507813 105.376138 
L 216.559376 105.362483 
L 219.610939 105.339724 
L 222.662501 105.307862 
L 225.714063 105.266896 
L 228.765626 105.216828 
L 231.817188 105.157655 
L 234.868751 105.08938 
L 237.920313 105.012 
" clip-path="url(#pacdbca3f6c)" style="fill: none; stroke: #1f77b4; stroke-width: 1.5"/>
   </g>
   <g id="PathCollection_3">
    <path d="M 42.620312 105.266896 
L 45.671872 105.763035 
L 48.723432 106.250067 
L 51.775006 106.728 
L 54.263642 107.110344 
L 54.826565 107.190423 
L 57.878125 107.616092 
L 60.929685 108.033333 
L 63.981244 108.442145 
L 67.032818 108.842529 
L 70.084378 109.234483 
L 71.29158 109.386206 
L 73.135938 109.602022 
L 76.187512 109.95125 
L 79.239071 110.292629 
L 82.290631 110.62616 
L 85.342191 110.951844 
L 88.393757 111.26968 
L 91.44531 111.579667 
L 92.277553 111.662069 
L 94.496869 111.86763 
L 97.548436 112.142937 
L 100.599996 112.410901 
L 103.651563 112.671524 
L 106.703122 112.924804 
L 109.754682 113.170744 
L 112.806249 113.409342 
L 115.857816 113.6406 
L 118.909375 113.864515 
L 119.943828 113.937932 
L 121.960942 114.072413 
L 125.012502 114.268965 
L 128.064069 114.45862 
L 131.115628 114.641379 
L 134.167188 114.817241 
L 137.218755 114.986208 
L 140.270314 115.148276 
L 143.321874 115.303447 
L 146.373441 115.451724 
L 149.425 115.593103 
L 152.476564 115.727586 
L 155.528127 115.855173 
L 158.57969 115.975862 
L 161.631253 116.089655 
L 164.682813 116.196552 
L 165.20896 116.213794 
L 167.734376 116.291823 
L 170.785939 116.379606 
L 173.837499 116.460887 
L 176.889062 116.535666 
L 179.940626 116.603942 
L 182.992189 116.665715 
L 186.04375 116.720985 
L 189.095313 116.769755 
L 192.146877 116.812021 
L 195.198438 116.847783 
L 198.250001 116.877045 
L 201.301564 116.899804 
L 204.353126 116.916059 
L 207.404689 116.925813 
L 210.456251 116.929064 
L 213.507813 116.925813 
L 216.559376 116.916059 
L 219.610939 116.899804 
L 222.662501 116.877045 
L 225.714063 116.847783 
L 228.765626 116.812021 
L 231.817188 116.769755 
L 234.868751 116.720985 
L 237.920313 116.665715 
" clip-path="url(#pacdbca3f6c)" style="fill: none; stroke: #1f77b4; stroke-width: 1.5"/>
   </g>
   <g id="PathCollection_4">
    <path d="M 42.620312 116.847783 
L 45.671872 117.202167 
L 48.723432 117.550049 
L 51.775006 117.89143 
L 54.826565 118.226306 
L 57.27387 118.489657 
L 57.878125 118.551165 
L 60.929685 118.855639 
L 63.981244 119.153961 
L 67.032818 119.446133 
L 70.084378 119.732153 
L 73.135938 120.012022 
L 76.187512 120.285742 
L 79.239071 120.55331 
L 81.716227 120.765519 
L 82.290631 120.812203 
L 85.342191 121.054376 
L 88.393757 121.290717 
L 91.44531 121.521219 
L 94.496869 121.745889 
L 97.548436 121.964721 
L 100.599996 122.177718 
L 103.651563 122.38488 
L 106.703122 122.586207 
L 109.754682 122.781698 
L 112.806249 122.971352 
L 113.968764 123.041379 
L 115.857816 123.14962 
L 118.909375 123.318924 
L 121.960942 123.482675 
L 125.012502 123.640873 
L 128.064069 123.793523 
L 131.115628 123.940623 
L 134.167188 124.082169 
L 137.218755 124.218165 
L 140.270314 124.348611 
L 143.321874 124.473506 
L 146.373441 124.59285 
L 149.425 124.706644 
L 152.476564 124.814885 
L 155.528127 124.917576 
L 158.57969 125.014718 
L 161.631253 125.106308 
L 164.682813 125.192344 
L 167.734376 125.272833 
L 169.542874 125.317245 
L 170.785939 125.346351 
L 173.837499 125.412509 
L 176.889062 125.473374 
L 179.940626 125.528948 
L 182.992189 125.579228 
L 186.04375 125.624217 
L 189.095313 125.663913 
L 192.146877 125.698315 
L 195.198438 125.727426 
L 198.250001 125.751243 
L 201.301564 125.769767 
L 204.353126 125.782999 
L 207.404689 125.790936 
L 210.456251 125.793584 
L 213.507813 125.790936 
L 216.559376 125.782999 
L 219.610939 125.769767 
L 222.662501 125.751243 
L 225.714063 125.727426 
L 228.765626 125.698315 
L 231.817188 125.663913 
L 234.868751 125.624217 
L 237.920313 125.579228 
" clip-path="url(#pacdbca3f6c)" style="fill: none; stroke: #1f77b4; stroke-width: 1.5"/>
   </g>
   <g id="PathCollection_5">
    <path d="M 42.620312 125.727426 
L 45.671872 126.015877 
L 48.723432 126.299037 
L 51.775006 126.576906 
L 54.826565 126.849479 
L 57.878125 127.11676 
L 60.929685 127.378749 
L 63.477901 127.593105 
L 63.981244 127.633564 
L 67.032818 127.873794 
L 70.084378 128.108965 
L 73.135938 128.339081 
L 76.187512 128.564138 
L 79.239071 128.784138 
L 82.290631 128.99908 
L 85.342191 129.208966 
L 88.393757 129.413794 
L 91.44531 129.613563 
L 94.496869 129.808274 
L 95.47338 129.868964 
L 97.548436 129.992441 
L 100.599996 130.169184 
L 103.651563 130.341084 
L 106.703122 130.508143 
L 109.754682 130.67036 
L 112.806249 130.827732 
L 115.857816 130.980263 
L 118.909375 131.127954 
L 121.960942 131.270801 
L 125.012502 131.408804 
L 128.064069 131.541967 
L 131.115628 131.670288 
L 134.167188 131.793765 
L 137.218755 131.912399 
L 140.270314 132.026192 
L 143.321874 132.135144 
L 143.605786 132.14483 
L 146.373441 132.235399 
L 149.425 132.330614 
L 152.476564 132.421183 
L 155.528127 132.507108 
L 158.57969 132.58839 
L 161.631253 132.665026 
L 164.682813 132.737016 
L 167.734376 132.804364 
L 170.785939 132.867067 
L 173.837499 132.925124 
L 176.889062 132.978536 
L 179.940626 133.027305 
L 182.992189 133.071428 
L 186.04375 133.110908 
L 189.095313 133.145744 
L 192.146877 133.175932 
L 195.198438 133.201479 
L 198.250001 133.22238 
L 201.301564 133.238636 
L 204.353126 133.250248 
L 207.404689 133.257213 
L 210.456251 133.259536 
L 213.507813 133.257213 
L 216.559376 133.250248 
L 219.610939 133.238636 
L 222.662501 133.22238 
L 225.714063 133.201479 
L 228.765626 133.175932 
L 231.817188 133.145744 
L 234.868751 133.110908 
L 237.920313 133.071428 
" clip-path="url(#pacdbca3f6c)" style="fill: none; stroke: #1f77b4; stroke-width: 1.5"/>
   </g>
   <g id="PathCollection_6">
    <path d="M 42.620312 133.201479 
L 45.671872 133.454609 
L 48.723432 133.703097 
L 51.775006 133.94694 
L 54.826565 134.186137 
L 57.878125 134.42069 
L 57.878125 134.42069 
L 60.929685 134.641582 
L 63.981244 134.858013 
L 67.032818 135.069981 
L 70.084378 135.277485 
L 73.135938 135.480529 
L 76.187512 135.679108 
L 79.239071 135.873226 
L 82.290631 136.062881 
L 85.342191 136.248074 
L 88.393757 136.428805 
L 91.44531 136.605072 
L 93.070112 136.69655 
L 94.496869 136.773846 
L 97.548436 136.934873 
L 100.599996 137.091607 
L 103.651563 137.244047 
L 106.703122 137.392193 
L 109.754682 137.536045 
L 112.806249 137.675602 
L 115.857816 137.810865 
L 118.909375 137.941836 
L 121.960942 138.068511 
L 125.012502 138.19089 
L 128.064069 138.308978 
L 131.115628 138.422772 
L 134.167188 138.53227 
L 137.218755 138.637475 
L 140.270314 138.738385 
L 143.321874 138.835002 
L 146.373441 138.927325 
L 147.936485 138.972415 
L 149.425 139.013793 
L 152.476564 139.094482 
L 155.528127 139.171033 
L 158.57969 139.243449 
L 161.631253 139.311724 
L 164.682813 139.375861 
L 167.734376 139.435861 
L 170.785939 139.491724 
L 173.837499 139.543448 
L 176.889062 139.591033 
L 179.940626 139.634482 
L 182.992189 139.673792 
L 186.04375 139.708965 
L 189.095313 139.74 
L 192.146877 139.766896 
L 195.198438 139.789656 
L 198.250001 139.808276 
L 201.301564 139.822759 
L 204.353126 139.833104 
L 207.404689 139.839309 
L 210.456251 139.841379 
L 213.507813 139.839309 
L 216.559376 139.833104 
L 219.610939 139.822759 
L 222.662501 139.808276 
L 225.714063 139.789656 
L 228.765626 139.766896 
L 231.817188 139.74 
L 234.868751 139.708965 
L 237.920313 139.673792 
" clip-path="url(#pacdbca3f6c)" style="fill: none; stroke: #1f77b4; stroke-width: 1.5"/>
   </g>
   <g id="PathCollection_7">
    <path d="M 42.620312 139.789654 
L 45.671872 140.015173 
L 48.723432 140.23655 
L 51.775006 140.453794 
L 54.826565 140.666899 
L 57.878125 140.87586 
L 60.929685 141.08069 
L 63.477871 141.248275 
L 63.981244 141.280218 
L 67.032818 141.469872 
L 70.084378 141.655535 
L 73.135938 141.837204 
L 76.187512 142.014883 
L 79.239071 142.188567 
L 82.290631 142.358258 
L 85.342191 142.523956 
L 88.393757 142.685662 
L 91.44531 142.843375 
L 94.496869 142.997095 
L 97.548436 143.146824 
L 100.599996 143.292559 
L 103.651563 143.4343 
L 105.641791 143.52414 
L 106.703122 143.570425 
L 109.754682 143.699647 
L 112.806249 143.825013 
L 115.857816 143.946521 
L 118.909375 144.064173 
L 121.960942 144.177966 
L 125.012502 144.2879 
L 128.064069 144.393979 
L 131.115628 144.496199 
L 134.167188 144.594564 
L 137.218755 144.68907 
L 140.270314 144.77972 
L 143.321874 144.866512 
L 146.373441 144.949444 
L 149.425 145.028522 
L 152.476564 145.10374 
L 155.528127 145.175103 
L 158.57969 145.242607 
L 161.631253 145.306252 
L 164.682813 145.366042 
L 167.734376 145.421977 
L 170.785939 145.474049 
L 173.837499 145.522269 
L 176.889062 145.566627 
L 179.940626 145.60713 
L 182.992189 145.643777 
L 186.04375 145.676565 
L 189.095313 145.705494 
L 192.146877 145.730568 
L 195.198438 145.751783 
L 198.250001 145.769139 
L 201.301564 145.78264 
L 204.353126 145.792286 
L 207.404689 145.798072 
L 210.456251 145.8 
" clip-path="url(#pacdbca3f6c)" style="fill: none; stroke: #1f77b4; stroke-width: 1.5"/>
    <path d="M 210.456251 145.8 
L 213.507813 145.798072 
L 216.559376 145.792286 
L 219.610939 145.78264 
L 222.662501 145.769139 
L 225.714063 145.751783 
L 228.765626 145.730568 
L 231.817188 145.705494 
L 234.868751 145.676565 
L 237.920313 145.643777 
" clip-path="url(#pacdbca3f6c)" style="fill: none; stroke: #1f77b4; stroke-width: 1.5"/>
   </g>
   <g id="PathCollection_8">
    <path d="M 42.620312 145.751783 
L 43.320206 145.8 
" clip-path="url(#pacdbca3f6c)" style="fill: none; stroke: #1f77b4; stroke-width: 1.5"/>
   </g>
   <g id="PathCollection_9"/>
   <g id="patch_3">
    <path d="M 42.620312 145.8 
L 42.620312 7.2 
" style="fill: none; stroke: #000000; stroke-width: 0.8; stroke-linejoin: miter; stroke-linecap: square"/>
   </g>
   <g id="patch_4">
    <path d="M 237.920313 145.8 
L 237.920313 7.2 
" style="fill: none; stroke: #000000; stroke-width: 0.8; stroke-linejoin: miter; stroke-linecap: square"/>
   </g>
   <g id="patch_5">
    <path d="M 42.620312 145.8 
L 237.920313 145.8 
" style="fill: none; stroke: #000000; stroke-width: 0.8; stroke-linejoin: miter; stroke-linecap: square"/>
   </g>
   <g id="patch_6">
    <path d="M 42.620312 7.2 
L 237.920313 7.2 
" style="fill: none; stroke: #000000; stroke-width: 0.8; stroke-linejoin: miter; stroke-linecap: square"/>
   </g>
  </g>
 </g>
 <defs>
  <clipPath id="pacdbca3f6c">
   <rect x="42.620312" y="7.2" width="195.3" height="138.6"/>
  </clipPath>
 </defs>
</svg>
