<?xml version="1.0" encoding="utf-8" standalone="no"?>
<!DOCTYPE svg PUBLIC "-//W3C//DTD SVG 1.1//EN"
  "http://www.w3.org/Graphics/SVG/1.1/DTD/svg11.dtd">
<svg xmlns:xlink="http://www.w3.org/1999/xlink" width="169.715408pt" height="168.910565pt" viewBox="0 0 169.715408 168.910565" xmlns="http://www.w3.org/2000/svg" version="1.1">
 <metadata>
  <rdf:RDF xmlns:dc="http://purl.org/dc/elements/1.1/" xmlns:cc="http://creativecommons.org/ns#" xmlns:rdf="http://www.w3.org/1999/02/22-rdf-syntax-ns#">
   <cc:Work>
    <dc:type rdf:resource="http://purl.org/dc/dcmitype/StillImage"/>
    <dc:date>2024-09-30T14:07:33.972854</dc:date>
    <dc:format>image/svg+xml</dc:format>
    <dc:creator>
     <cc:Agent>
      <dc:title>Matplotlib v3.7.2, https://matplotlib.org/</dc:title>
     </cc:Agent>
    </dc:creator>
   </cc:Work>
  </rdf:RDF>
 </metadata>
 <defs>
  <style type="text/css">*{stroke-linejoin: round; stroke-linecap: butt}</style>
 </defs>
 <g id="figure_1">
  <g id="patch_1">
   <path d="M 0 168.910565 
L 169.715408 168.910565 
L 169.715408 0 
L 0 0 
z
" style="fill: #ffffff"/>
  </g>
  <g id="patch_2">
   <path d="M 7.2 145.8 
L 145.8 145.8 
L 145.8 7.2 
L 7.2 7.2 
z
" style="fill: #ffffff"/>
  </g>
  <g id="pane3d_1">
   <g id="patch_3">
    <path d="M 17.665256 111.625682 
L 63.435502 73.260154 
L 62.799252 17.930204 
L 14.838663 52.929657 
" style="fill: #f2f2f2; opacity: 0.5; stroke: #f2f2f2; stroke-linejoin: miter"/>
   </g>
  </g>
  <g id="pane3d_2">
   <g id="patch_4">
    <path d="M 63.435502 73.260154 
L 136.880417 94.607691 
L 139.501407 37.371964 
L 62.799252 17.930204 
" style="fill: #e6e6e6; opacity: 0.5; stroke: #e6e6e6; stroke-linejoin: miter"/>
   </g>
  </g>
  <g id="pane3d_3">
   <g id="patch_5">
    <path d="M 17.665256 111.625682 
L 95.520453 137.053189 
L 136.880417 94.607691 
L 63.435502 73.260154 
" style="fill: #ececec; opacity: 0.5; stroke: #ececec; stroke-linejoin: miter"/>
   </g>
  </g>
  <g id="axis3d_1">
   <g id="line2d_1">
    <path d="M 17.665256 111.625682 
L 95.520453 137.053189 
" style="fill: none; stroke: #000000; stroke-width: 0.8; stroke-linecap: square"/>
   </g>
   <g id="text_1">
    <!-- x -->
    <g transform="translate(36.190346 162.307234) scale(0.1 -0.1)">
     <defs>
      <path id="DejaVuSans-78" d="M 3513 3500 
L 2247 1797 
L 3578 0 
L 2900 0 
L 1881 1375 
L 863 0 
L 184 0 
L 1544 1831 
L 300 3500 
L 978 3500 
L 1906 2253 
L 2834 3500 
L 3513 3500 
z
" transform="scale(0.015625)"/>
     </defs>
     <use xlink:href="#DejaVuSans-78"/>
    </g>
   </g>
   <g id="Line3DCollection_1">
    <path d="M 22.380575 113.165705 
L 67.902197 74.558445 
L 67.454802 19.11025 
" style="fill: none; stroke: #b0b0b0; stroke-width: 0.8"/>
    <path d="M 55.566605 124.004262 
L 99.270858 83.676077 
L 100.18343 27.406003 
" style="fill: none; stroke: #b0b0b0; stroke-width: 0.8"/>
    <path d="M 90.315667 135.353306 
L 131.990658 93.186431 
L 134.384718 36.075033 
" style="fill: none; stroke: #b0b0b0; stroke-width: 0.8"/>
   </g>
   <g id="xtick_1">
    <g id="line2d_2">
     <path d="M 22.776975 112.829515 
L 21.586075 113.839527 
" style="fill: none; stroke: #000000; stroke-width: 0.8; stroke-linecap: square"/>
    </g>
    <g id="text_2">
     <!-- −1 -->
     <g transform="translate(7.454595 136.528767) scale(0.1 -0.1)">
      <defs>
       <path id="DejaVuSans-2212" d="M 678 2272 
L 4684 2272 
L 4684 1741 
L 678 1741 
L 678 2272 
z
" transform="scale(0.015625)"/>
       <path id="DejaVuSans-31" d="M 794 531 
L 1825 531 
L 1825 4091 
L 703 3866 
L 703 4441 
L 1819 4666 
L 2450 4666 
L 2450 531 
L 3481 531 
L 3481 0 
L 794 0 
L 794 531 
z
" transform="scale(0.015625)"/>
      </defs>
      <use xlink:href="#DejaVuSans-2212"/>
      <use xlink:href="#DejaVuSans-31" x="83.789062"/>
     </g>
    </g>
   </g>
   <g id="xtick_2">
    <g id="line2d_3">
     <path d="M 55.94789 123.65243 
L 54.80236 124.709471 
" style="fill: none; stroke: #000000; stroke-width: 0.8; stroke-linecap: square"/>
    </g>
    <g id="text_3">
     <!-- 0 -->
     <g transform="translate(44.898548 147.812111) scale(0.1 -0.1)">
      <defs>
       <path id="DejaVuSans-30" d="M 2034 4250 
Q 1547 4250 1301 3770 
Q 1056 3291 1056 2328 
Q 1056 1369 1301 889 
Q 1547 409 2034 409 
Q 2525 409 2770 889 
Q 3016 1369 3016 2328 
Q 3016 3291 2770 3770 
Q 2525 4250 2034 4250 
z
M 2034 4750 
Q 2819 4750 3233 4129 
Q 3647 3509 3647 2328 
Q 3647 1150 3233 529 
Q 2819 -91 2034 -91 
Q 1250 -91 836 529 
Q 422 1150 422 2328 
Q 422 3509 836 4129 
Q 1250 4750 2034 4750 
z
" transform="scale(0.015625)"/>
      </defs>
      <use xlink:href="#DejaVuSans-30"/>
     </g>
    </g>
   </g>
   <g id="xtick_3">
    <g id="line2d_4">
     <path d="M 90.679959 134.984714 
L 89.585446 136.092146 
" style="fill: none; stroke: #000000; stroke-width: 0.8; stroke-linecap: square"/>
    </g>
    <g id="text_4">
     <!-- 1 -->
     <g transform="translate(79.730646 159.630877) scale(0.1 -0.1)">
      <use xlink:href="#DejaVuSans-31"/>
     </g>
    </g>
   </g>
  </g>
  <g id="axis3d_2">
   <g id="line2d_5">
    <path d="M 136.880417 94.607691 
L 95.520453 137.053189 
" style="fill: none; stroke: #000000; stroke-width: 0.8; stroke-linecap: square"/>
   </g>
   <g id="text_5">
    <!-- y -->
    <g transform="translate(141.167797 145.683654) scale(0.1 -0.1)">
     <defs>
      <path id="DejaVuSans-79" d="M 2059 -325 
Q 1816 -950 1584 -1140 
Q 1353 -1331 966 -1331 
L 506 -1331 
L 506 -850 
L 844 -850 
Q 1081 -850 1212 -737 
Q 1344 -625 1503 -206 
L 1606 56 
L 191 3500 
L 800 3500 
L 1894 763 
L 2988 3500 
L 3597 3500 
L 2059 -325 
z
" transform="scale(0.015625)"/>
     </defs>
     <use xlink:href="#DejaVuSans-79"/>
    </g>
   </g>
   <g id="Line3DCollection_2">
    <path d="M 18.155257 50.509358 
L 20.819213 108.981973 
L 98.382242 134.116289 
" style="fill: none; stroke: #b0b0b0; stroke-width: 0.8"/>
    <path d="M 39.885822 34.651381 
L 41.525154 91.625842 
L 117.126847 114.879713 
" style="fill: none; stroke: #b0b0b0; stroke-width: 0.8"/>
    <path d="M 59.991995 19.978812 
L 60.746858 75.513829 
L 134.460919 97.090691 
" style="fill: none; stroke: #b0b0b0; stroke-width: 0.8"/>
   </g>
   <g id="xtick_4">
    <g id="line2d_6">
     <path d="M 97.728616 133.904481 
L 99.691184 134.540452 
" style="fill: none; stroke: #000000; stroke-width: 0.8; stroke-linecap: square"/>
    </g>
    <g id="text_6">
     <!-- −1 -->
     <g transform="translate(103.898882 155.145417) scale(0.1 -0.1)">
      <use xlink:href="#DejaVuSans-2212"/>
      <use xlink:href="#DejaVuSans-31" x="83.789062"/>
     </g>
    </g>
   </g>
   <g id="xtick_5">
    <g id="line2d_7">
     <path d="M 116.491011 114.68414 
L 118.400099 115.271345 
" style="fill: none; stroke: #000000; stroke-width: 0.8; stroke-linecap: square"/>
    </g>
    <g id="text_7">
     <!-- 0 -->
     <g transform="translate(126.349632 135.361913) scale(0.1 -0.1)">
      <use xlink:href="#DejaVuSans-30"/>
     </g>
    </g>
   </g>
   <g id="xtick_6">
    <g id="line2d_8">
     <path d="M 133.842096 96.909555 
L 135.700045 97.453396 
" style="fill: none; stroke: #000000; stroke-width: 0.8; stroke-linecap: square"/>
    </g>
    <g id="text_8">
     <!-- 1 -->
     <g transform="translate(143.234942 117.068702) scale(0.1 -0.1)">
      <use xlink:href="#DejaVuSans-31"/>
     </g>
    </g>
   </g>
  </g>
  <g id="axis3d_3">
   <g id="line2d_9">
    <path d="M 136.880417 94.607691 
L 139.501407 37.371964 
" style="fill: none; stroke: #000000; stroke-width: 0.8; stroke-linecap: square"/>
   </g>
   <g id="Line3DCollection_3">
    <path d="M 136.930632 93.511118 
L 63.423287 72.197896 
L 17.611191 110.502989 
" style="fill: none; stroke: #b0b0b0; stroke-width: 0.8"/>
    <path d="M 138.162202 66.616789 
L 63.124011 46.172077 
L 16.284113 82.945357 
" style="fill: none; stroke: #b0b0b0; stroke-width: 0.8"/>
    <path d="M 139.446688 38.566888 
L 62.812508 19.082955 
L 14.897772 54.157093 
" style="fill: none; stroke: #b0b0b0; stroke-width: 0.8"/>
   </g>
   <g id="xtick_7">
    <g id="line2d_10">
     <path d="M 136.313678 93.332234 
L 138.166009 93.869311 
" style="fill: none; stroke: #000000; stroke-width: 0.8; stroke-linecap: square"/>
    </g>
    <g id="text_9">
     <!-- −1 -->
     <g transform="translate(147.773221 98.515807) scale(0.1 -0.1)">
      <use xlink:href="#DejaVuSans-2212"/>
      <use xlink:href="#DejaVuSans-31" x="83.789062"/>
     </g>
    </g>
   </g>
   <g id="xtick_8">
    <g id="line2d_11">
     <path d="M 137.531779 66.445026 
L 139.424579 66.960733 
" style="fill: none; stroke: #000000; stroke-width: 0.8; stroke-linecap: square"/>
    </g>
    <g id="text_10">
     <!-- 0 -->
     <g transform="translate(153.568228 71.725004) scale(0.1 -0.1)">
      <use xlink:href="#DejaVuSans-30"/>
     </g>
    </g>
   </g>
   <g id="xtick_9">
    <g id="line2d_12">
     <path d="M 138.802197 38.403029 
L 140.737271 38.895014 
" style="fill: none; stroke: #000000; stroke-width: 0.8; stroke-linecap: square"/>
    </g>
    <g id="text_11">
     <!-- 1 -->
     <g transform="translate(155.241948 43.789973) scale(0.1 -0.1)">
      <use xlink:href="#DejaVuSans-31"/>
     </g>
    </g>
   </g>
  </g>
  <g id="axes_1">
   <g id="line2d_13">
    <defs>
     <path id="me0bb55bc62" d="M -3 3 
L 3 -3 
M -3 -3 
L 3 3 
" style="stroke: #ff0000"/>
    </defs>
    <g clip-path="url(#pcd48862d17)">
     <use xlink:href="#me0bb55bc62" x="78.372973" y="74.627027" style="fill: #ff0000; stroke: #ff0000"/>
    </g>
   </g>
   <g id="Line3DCollection_4">
    <path d="M 24.318635 81.868935 
L 24.710556 80.407083 
L 25.103462 78.967565 
L 25.497331 77.550469 
L 25.892142 76.155867 
L 26.287877 74.783829 
L 26.684512 73.434437 
L 27.082029 72.107753 
L 27.480405 70.803848 
L 27.879622 69.522778 
L 28.279656 68.264617 
L 28.680486 67.029418 
L 29.082094 65.817238 
L 29.484454 64.628137 
L 29.887548 63.462163 
L 30.291355 62.319367 
L 30.69585 61.199798 
L 31.101015 60.103501 
L 31.506827 59.030517 
L 31.913264 57.980887 
L 32.320305 56.954651 
L 32.727929 55.951839 
L 33.136113 54.972491 
L 33.544835 54.016632 
L 33.954075 53.084291 
L 34.363809 52.175495 
L 34.774015 51.290266 
L 35.184674 50.428623 
L 35.595762 49.590584 
L 36.007257 48.776167 
L 36.419138 47.985383 
L 36.831382 47.218242 
L 37.243968 46.474752 
L 37.656874 45.75492 
L 38.070078 45.058749 
L 38.483558 44.386238 
L 38.897292 43.737386 
L 39.311258 43.112188 
L 39.725435 42.510639 
L 40.1398 41.932727 
L 40.554333 41.378444 
L 40.96901 40.847773 
L 41.383811 40.340698 
L 41.798714 39.857202 
L 42.213697 39.39726 
L 42.628739 38.960852 
L 43.043818 38.547951 
L 43.458913 38.15853 
L 43.874002 37.792556 
L 44.289064 37.449996 
L 44.704078 37.130815 
L 45.119023 36.834978 
L 45.533876 36.562443 
L 45.948618 36.313167 
L 46.363228 36.087107 
L 46.777684 35.884217 
L 47.191965 35.704448 
L 47.606052 35.547748 
L 48.019923 35.414064 
L 48.433558 35.30334 
L 48.846937 35.215521 
L 49.260038 35.150544 
L 49.672843 35.108352 
L 50.08533 35.088876 
L 50.497481 35.092054 
L 50.909274 35.117817 
L 51.32069 35.166094 
L 51.73171 35.236814 
L 52.142314 35.329904 
L 52.552483 35.445287 
L 52.962197 35.582887 
L 53.371437 35.742621 
L 53.780184 35.924412 
L 54.18842 36.128173 
L 54.596125 36.353821 
L 55.003281 36.601267 
L 55.40987 36.870424 
L 55.815873 37.161201 
L 56.221272 37.473507 
L 56.626048 37.807245 
L 57.030186 38.162323 
L 57.433665 38.538641 
L 57.836469 38.936102 
L 58.238581 39.354604 
L 58.639982 39.794045 
L 59.040657 40.254322 
L 59.440588 40.73533 
L 59.839758 41.236963 
L 60.23815 41.759111 
L 60.63575 42.301667 
L 61.032539 42.864518 
L 61.428501 43.447552 
L 61.823623 44.050657 
L 62.217886 44.673714 
L 62.611275 45.316612 
L 63.003776 45.979229 
L 63.395374 46.661452 
L 63.786051 47.363154 
L 64.175795 48.084218 
L 64.564591 48.824522 
L 64.952423 49.583939 
" clip-path="url(#pcd48862d17)" style="fill: none; stroke: #1f77b4; stroke-width: 1.5"/>
    <path d="M 31.326259 93.962164 
L 31.717396 92.505925 
L 32.109392 91.071739 
L 32.502226 89.659692 
L 32.895877 88.269855 
L 33.290328 86.902299 
L 33.685555 85.557103 
L 34.081538 84.234331 
L 34.478257 82.934053 
L 34.875692 81.656324 
L 35.27382 80.401219 
L 35.672621 79.168789 
L 36.072076 77.959091 
L 36.47216 76.772186 
L 36.872855 75.608121 
L 37.27414 74.466946 
L 37.675991 73.348714 
L 38.078388 72.253465 
L 38.481312 71.18124 
L 38.884739 70.132086 
L 39.288648 69.106036 
L 39.69302 68.103124 
L 40.09783 67.123389 
L 40.503058 66.166858 
L 40.908684 65.233556 
L 41.314685 64.323514 
L 41.721039 63.436753 
L 42.127727 62.573292 
L 42.534725 61.733151 
L 42.942012 60.916346 
L 43.349568 60.12289 
L 43.75737 59.352793 
L 44.165398 58.606065 
L 44.573629 57.882711 
L 44.982042 57.182736 
L 45.390616 56.506138 
L 45.799329 55.852921 
L 46.208161 55.223076 
L 46.61709 54.6166 
L 47.026094 54.033483 
L 47.435153 53.473716 
L 47.844244 52.937285 
L 48.253348 52.424173 
L 48.662443 51.934363 
L 49.071508 51.467837 
L 49.480521 51.024568 
L 49.889463 50.604535 
L 50.298312 50.207709 
L 50.707048 49.83406 
L 51.115649 49.483556 
L 51.524096 49.156164 
L 51.932367 48.851847 
L 52.340443 48.570567 
L 52.748302 48.312281 
L 53.155924 48.076948 
L 53.56329 47.864523 
L 53.970379 47.674958 
L 54.377171 47.508201 
L 54.783646 47.364204 
L 55.189785 47.242911 
L 55.595568 47.144266 
L 56.000974 47.068209 
L 56.405986 47.014685 
L 56.810583 46.983627 
L 57.214746 46.974972 
L 57.618456 46.988654 
L 58.021694 47.024606 
L 58.42444 47.082756 
L 58.826678 47.163032 
L 59.228387 47.265361 
L 59.629548 47.389666 
L 60.030146 47.535868 
L 60.430159 47.70389 
L 60.829571 47.893648 
L 61.228364 48.10506 
L 61.626519 48.33804 
L 62.02402 48.592501 
L 62.420849 48.868355 
L 62.816987 49.165512 
L 63.212419 49.483878 
L 63.607128 49.823362 
L 64.001094 50.183866 
L 64.394303 50.565295 
L 64.78674 50.96755 
L 65.178384 51.39053 
L 65.569222 51.834133 
L 65.959238 52.298258 
L 66.348414 52.782799 
L 66.736736 53.287649 
L 67.124188 53.812704 
L 67.510754 54.357851 
L 67.896419 54.922981 
L 68.28117 55.507985 
L 68.664989 56.112745 
L 69.047862 56.737151 
L 69.429775 57.381086 
L 69.810715 58.044436 
L 70.190665 58.727079 
L 70.569613 59.428898 
L 70.947545 60.149774 
L 71.324447 60.889583 
" clip-path="url(#pcd48862d17)" style="fill: none; stroke: #1f77b4; stroke-width: 1.5"/>
    <path d="M 38.218828 103.780253 
L 38.609854 102.326915 
L 39.001619 100.895427 
L 39.3941 99.485873 
L 39.787279 98.098326 
L 40.181136 96.732856 
L 40.575648 95.389541 
L 40.970796 94.068445 
L 41.366559 92.769638 
L 41.762918 91.493176 
L 42.159849 90.239131 
L 42.557334 89.007557 
L 42.955351 87.79851 
L 43.353879 86.61205 
L 43.752897 85.448224 
L 44.152385 84.307084 
L 44.552321 83.18868 
L 44.952684 82.093055 
L 45.353454 81.020249 
L 45.754608 79.970308 
L 46.156126 78.943266 
L 46.557988 77.939158 
L 46.960171 76.958022 
L 47.362654 75.999885 
L 47.765417 75.064773 
L 48.168438 74.152717 
L 48.571696 73.263739 
L 48.97517 72.397857 
L 49.378839 71.555092 
L 49.782681 70.735462 
L 50.186676 69.938976 
L 50.590802 69.165649 
L 50.995038 68.415489 
L 51.399364 67.688502 
L 51.803758 66.984692 
L 52.208199 66.304062 
L 52.612667 65.646611 
L 53.01714 65.012334 
L 53.421598 64.401226 
L 53.826019 63.813282 
L 54.230384 63.248489 
L 54.63467 62.706835 
L 55.038858 62.188305 
L 55.442928 61.692882 
L 55.846858 61.220547 
L 56.250628 60.771277 
L 56.654218 60.345048 
L 57.057607 59.941835 
L 57.460775 59.561607 
L 57.863703 59.204334 
L 58.26637 58.869981 
L 58.668755 58.558516 
L 59.07084 58.269898 
L 59.472603 58.004089 
L 59.874027 57.761046 
L 60.27509 57.540724 
L 60.675774 57.343078 
L 61.076059 57.168058 
L 61.475927 57.015614 
L 61.875356 56.885692 
L 62.27433 56.778238 
L 62.672828 56.693194 
L 63.070832 56.630501 
L 63.468323 56.590099 
L 63.865283 56.571923 
L 64.261693 56.57591 
L 64.657535 56.601991 
L 65.05279 56.650098 
L 65.447442 56.720159 
L 65.841471 56.812102 
L 66.23486 56.925851 
L 66.627591 57.06133 
L 67.019647 57.218461 
L 67.41101 57.397162 
L 67.801664 57.597353 
L 68.191591 57.818949 
L 68.580774 58.061863 
L 68.969198 58.32601 
L 69.356843 58.6113 
L 69.743695 58.917641 
L 70.129739 59.244942 
L 70.514955 59.593109 
L 70.89933 59.962046 
L 71.282848 60.351656 
L 71.665492 60.761839 
L 72.047247 61.192495 
L 72.428099 61.643524 
L 72.808031 62.114823 
L 73.187029 62.606284 
L 73.565079 63.117804 
L 73.942165 63.649275 
L 74.318273 64.200585 
L 74.693389 64.77163 
L 75.067499 65.362292 
L 75.440588 65.972463 
L 75.812644 66.602026 
L 76.183653 67.25087 
L 76.553601 67.918873 
L 76.922474 68.605921 
L 77.290262 69.311896 
L 77.656949 70.036674 
" clip-path="url(#pcd48862d17)" style="fill: none; stroke: #1f77b4; stroke-width: 1.5"/>
    <path d="M 45.032743 111.384673 
L 45.424331 109.931557 
L 45.816541 108.500162 
L 46.209349 107.090573 
L 46.602736 105.702865 
L 46.996683 104.337106 
L 47.391168 102.993376 
L 47.78617 101.671737 
L 48.181669 100.37226 
L 48.577646 99.095 
L 48.974077 97.840032 
L 49.370943 96.607407 
L 49.768225 95.397182 
L 50.165898 94.209418 
L 50.563945 93.044162 
L 50.962344 91.901466 
L 51.361072 90.781378 
L 51.760111 89.683944 
L 52.159439 88.609203 
L 52.559035 87.557201 
L 52.958877 86.527974 
L 53.358946 85.521555 
L 53.75922 84.537982 
L 54.159677 83.577284 
L 54.560299 82.639487 
L 54.961062 81.724622 
L 55.361946 80.83271 
L 55.762931 79.963771 
L 56.163996 79.117826 
L 56.565118 78.294892 
L 56.966279 77.49498 
L 57.367457 76.718105 
L 57.768631 75.964274 
L 58.16978 75.233494 
L 58.570884 74.525772 
L 58.971923 73.841107 
L 59.372874 73.179501 
L 59.773719 72.540949 
L 60.174437 71.925447 
L 60.575006 71.332988 
L 60.975407 70.763563 
L 61.375619 70.217158 
L 61.775623 69.693759 
L 62.175398 69.19335 
L 62.574923 68.715911 
L 62.974179 68.261422 
L 63.373146 67.829858 
L 63.771805 67.421193 
L 64.170135 67.035398 
L 64.568116 66.672445 
L 64.96573 66.332299 
L 65.362957 66.014926 
L 65.759776 65.720288 
L 66.156169 65.448346 
L 66.552118 65.199059 
L 66.947602 64.972382 
L 67.342603 64.76827 
L 67.737101 64.586675 
L 68.13108 64.427546 
L 68.524519 64.290831 
L 68.9174 64.176476 
L 69.309704 64.084423 
L 69.701415 64.014616 
L 70.092513 63.966993 
L 70.482981 63.941491 
L 70.8728 63.938047 
L 71.261954 63.956593 
L 71.650423 63.997061 
L 72.038193 64.059381 
L 72.425244 64.143481 
L 72.811559 64.249287 
L 73.197122 64.376722 
L 73.581916 64.525708 
L 73.965925 64.696166 
L 74.349131 64.888015 
L 74.731518 65.101171 
L 75.113071 65.33555 
L 75.493773 65.591065 
L 75.873608 65.867627 
L 76.25256 66.165145 
L 76.630615 66.483531 
L 77.007755 66.822689 
L 77.383967 67.182524 
L 77.759236 67.562941 
L 78.133545 67.96384 
L 78.506881 68.385124 
L 78.87923 68.82669 
L 79.250576 69.288438 
L 79.620905 69.770261 
L 79.990205 70.272056 
L 80.358459 70.793715 
L 80.725656 71.33513 
L 81.091782 71.896195 
L 81.456821 72.476793 
L 81.820763 73.076817 
L 82.183594 73.696152 
L 82.545303 74.334687 
L 82.905874 74.992301 
L 83.265297 75.668881 
L 83.623559 76.364308 
L 83.980648 77.078462 
" clip-path="url(#pcd48862d17)" style="fill: none; stroke: #1f77b4; stroke-width: 1.5"/>
    <path d="M 51.803488 116.813651 
L 52.196318 115.358076 
L 52.589653 113.92417 
L 52.983469 112.512019 
L 53.377749 111.121697 
L 53.772472 109.753272 
L 54.167615 108.406825 
L 54.563159 107.082419 
L 54.959083 105.780123 
L 55.355367 104.499996 
L 55.75199 103.242109 
L 56.14893 102.006517 
L 56.546169 100.793275 
L 56.943682 99.602444 
L 57.341452 98.434073 
L 57.739457 97.288212 
L 58.137675 96.164913 
L 58.536086 95.064219 
L 58.93467 93.986171 
L 59.333404 92.930813 
L 59.732268 91.898183 
L 60.131244 90.888315 
L 60.530306 89.901247 
L 60.929437 88.937008 
L 61.328615 87.995623 
L 61.727819 87.077124 
L 62.127028 86.181533 
L 62.526222 85.30887 
L 62.925381 84.459155 
L 63.324482 83.632407 
L 63.723506 82.828638 
L 64.122432 82.047861 
L 64.52124 81.290084 
L 64.919909 80.555315 
L 65.318418 79.84356 
L 65.716748 79.15482 
L 66.114878 78.489096 
L 66.512787 77.846384 
L 66.910456 77.22668 
L 67.307865 76.629977 
L 67.704992 76.056265 
L 68.101819 75.505534 
L 68.498325 74.977767 
L 68.894491 74.472949 
L 69.290297 73.991062 
L 69.685723 73.532083 
L 70.08075 73.095989 
L 70.475358 72.682755 
L 70.869528 72.292353 
L 71.263241 71.924752 
L 71.656478 71.579919 
L 72.049218 71.257822 
L 72.441445 70.958421 
L 72.833138 70.681678 
L 73.224279 70.427552 
L 73.61485 70.195998 
L 74.004831 69.986973 
L 74.394205 69.800426 
L 74.782954 69.636309 
L 75.171059 69.49457 
L 75.558503 69.375154 
L 75.945267 69.278006 
L 76.331334 69.203066 
L 76.716687 69.150275 
L 77.101307 69.11957 
L 77.485178 69.110887 
L 77.868283 69.124161 
L 78.250604 69.159321 
L 78.632125 69.2163 
L 79.01283 69.295024 
L 79.3927 69.395419 
L 79.771721 69.517411 
L 80.149876 69.66092 
L 80.52715 69.825869 
L 80.903525 70.012175 
L 81.278986 70.219756 
L 81.653518 70.448527 
L 82.027107 70.698402 
L 82.399735 70.969291 
L 82.771387 71.261106 
L 83.142052 71.573757 
L 83.51171 71.907148 
L 83.88035 72.261186 
L 84.247957 72.635775 
L 84.614516 73.030816 
L 84.980013 73.44621 
L 85.344435 73.881857 
L 85.707768 74.337655 
L 86.069998 74.813499 
L 86.431113 75.309286 
L 86.791098 75.824908 
L 87.149941 76.360256 
L 87.50763 76.915225 
L 87.864152 77.489699 
L 88.219493 78.083571 
L 88.573643 78.696726 
L 88.92659 79.329052 
L 89.27832 79.98043 
L 89.628823 80.650746 
L 89.978089 81.339882 
L 90.326103 82.047717 
" clip-path="url(#pcd48862d17)" style="fill: none; stroke: #1f77b4; stroke-width: 1.5"/>
    <path d="M 58.566254 120.082803 
L 58.961017 118.622062 
L 59.35617 117.183014 
L 59.751688 115.765745 
L 60.147553 114.370327 
L 60.543744 112.996832 
L 60.940239 111.645339 
L 61.337019 110.315912 
L 61.734061 109.008623 
L 62.131347 107.723528 
L 62.528854 106.4607 
L 62.926561 105.220194 
L 63.32445 104.002066 
L 63.722496 102.806378 
L 64.12068 101.633179 
L 64.518983 100.482518 
L 64.917381 99.35445 
L 65.315854 98.249016 
L 65.714383 97.166258 
L 66.112945 96.106223 
L 66.511519 95.068946 
L 66.910087 94.054461 
L 67.308625 93.062809 
L 67.707113 92.094017 
L 68.105532 91.148113 
L 68.503859 90.225128 
L 68.902074 89.325083 
L 69.300157 88.448 
L 69.698088 87.593899 
L 70.095844 86.762798 
L 70.493407 85.95471 
L 70.890755 85.169648 
L 71.287869 84.407621 
L 71.684728 83.668638 
L 72.08131 82.952702 
L 72.477598 82.259817 
L 72.87357 81.589983 
L 73.269207 80.943196 
L 73.664487 80.319453 
L 74.059393 79.718747 
L 74.453902 79.141068 
L 74.847997 78.586404 
L 75.241658 78.054742 
L 75.634864 77.546064 
L 76.027597 77.060352 
L 76.419836 76.597586 
L 76.811564 76.157741 
L 77.20276 75.740792 
L 77.593407 75.34671 
L 77.983484 74.975466 
L 78.372974 74.627027 
L 78.761857 74.301358 
L 79.150115 73.998423 
L 79.537729 73.718182 
L 79.924682 73.460593 
L 80.310954 73.225613 
L 80.696529 73.013197 
L 81.081388 72.823295 
L 81.465513 72.655859 
L 81.848887 72.510836 
L 82.231492 72.388172 
L 82.613311 72.28781 
L 82.994327 72.209693 
L 83.374523 72.153759 
L 83.753882 72.119946 
L 84.132387 72.108189 
L 84.510021 72.118423 
L 84.886768 72.15058 
L 85.262612 72.204587 
L 85.637537 72.280374 
L 86.011526 72.377866 
L 86.384564 72.496988 
L 86.756636 72.63766 
L 87.127725 72.799804 
L 87.497818 72.983339 
L 87.866897 73.188181 
L 88.234948 73.414245 
L 88.601958 73.661444 
L 88.967911 73.92969 
L 89.332792 74.218893 
L 89.696588 74.528962 
L 90.059284 74.859802 
L 90.420866 75.211319 
L 90.781323 75.583417 
L 91.140637 75.975996 
L 91.498797 76.388958 
L 91.855791 76.822202 
L 92.211604 77.275626 
L 92.566223 77.749123 
L 92.919638 78.242591 
L 93.271834 78.755922 
L 93.6228 79.289005 
L 93.972524 79.841737 
L 94.320994 80.414 
L 94.668197 81.005686 
L 95.014123 81.616681 
L 95.358762 82.246872 
L 95.7021 82.89614 
L 96.044127 83.564369 
L 96.384835 84.251444 
L 96.724209 84.957241 
" clip-path="url(#pcd48862d17)" style="fill: none; stroke: #1f77b4; stroke-width: 1.5"/>
    <path d="M 65.356543 121.185182 
L 65.753953 119.716513 
L 66.151634 118.269634 
L 66.549565 116.844634 
L 66.947725 115.441586 
L 67.346094 114.060561 
L 67.744649 112.701641 
L 68.14337 111.36489 
L 68.542236 110.05038 
L 68.941227 108.758168 
L 69.340321 107.488329 
L 69.739496 106.240917 
L 70.138734 105.01599 
L 70.538011 103.813609 
L 70.937306 102.633825 
L 71.336601 101.476688 
L 71.735871 100.34225 
L 72.135098 99.230558 
L 72.534261 98.141651 
L 72.933337 97.075575 
L 73.332306 96.032369 
L 73.731148 95.012067 
L 74.129841 94.014709 
L 74.528365 93.040324 
L 74.926699 92.088936 
L 75.324822 91.160581 
L 75.722714 90.255279 
L 76.120354 89.373052 
L 76.517722 88.51392 
L 76.914796 87.677902 
L 77.311557 86.86501 
L 77.707984 86.075258 
L 78.104057 85.308656 
L 78.499756 84.56521 
L 78.89506 83.844928 
L 79.289951 83.147809 
L 79.684406 82.473856 
L 80.078408 81.823065 
L 80.471936 81.195431 
L 80.864969 80.590949 
L 81.25749 80.009608 
L 81.649477 79.451397 
L 82.040912 78.916301 
L 82.431777 78.404304 
L 82.82205 77.915387 
L 83.211713 77.449528 
L 83.600748 77.006704 
L 83.989136 76.58689 
L 84.376857 76.190055 
L 84.763893 75.816172 
L 85.150227 75.465204 
L 85.535839 75.13712 
L 85.920711 74.831881 
L 86.304825 74.549447 
L 86.688163 74.289777 
L 87.070708 74.052826 
L 87.452442 73.838548 
L 87.833347 73.646896 
L 88.213406 73.477817 
L 88.592602 73.331261 
L 88.970917 73.207172 
L 89.348336 73.105493 
L 89.72484 73.026164 
L 90.100414 72.969126 
L 90.475042 72.934316 
L 90.848705 72.921667 
L 91.22139 72.931113 
L 91.593079 72.962585 
L 91.963758 73.016012 
L 92.33341 73.091321 
L 92.70202 73.188438 
L 93.069573 73.307285 
L 93.436053 73.447784 
L 93.801447 73.609854 
L 94.165738 73.793414 
L 94.528913 73.998379 
L 94.890957 74.224663 
L 95.251856 74.472181 
L 95.611596 74.740839 
L 95.970163 75.03055 
L 96.327545 75.341221 
L 96.683725 75.672757 
L 97.038692 76.025062 
L 97.392435 76.398039 
L 97.744937 76.791588 
L 98.096187 77.20561 
L 98.446174 77.640002 
L 98.794883 78.094661 
L 99.142304 78.569482 
L 99.488425 79.064358 
L 99.833233 79.579182 
L 100.176717 80.113844 
L 100.518867 80.668236 
L 100.859669 81.24224 
L 101.199115 81.83575 
L 101.537192 82.448647 
L 101.873891 83.08082 
L 102.209201 83.732148 
L 102.543112 84.402514 
L 102.875615 85.0918 
L 103.206697 85.799883 
" clip-path="url(#pcd48862d17)" style="fill: none; stroke: #1f77b4; stroke-width: 1.5"/>
    <path d="M 72.210812 120.090746 
L 72.611609 118.611293 
L 73.012559 117.153808 
L 73.413638 115.718379 
L 73.814827 114.305082 
L 74.216106 112.913989 
L 74.61745 111.545182 
L 75.01884 110.198727 
L 75.420255 108.874696 
L 75.821674 107.573148 
L 76.223074 106.294157 
L 76.624434 105.037781 
L 77.025735 103.804076 
L 77.426952 102.593106 
L 77.828067 101.404921 
L 78.229059 100.239573 
L 78.629903 99.097114 
L 79.030582 97.977591 
L 79.431073 96.881045 
L 79.831355 95.807523 
L 80.231407 94.757063 
L 80.631209 93.729699 
L 81.030738 92.725473 
L 81.429975 91.744413 
L 81.828899 90.786546 
L 82.227488 89.851906 
L 82.625722 88.940514 
L 83.023582 88.052392 
L 83.421045 87.18756 
L 83.818091 86.346038 
L 84.2147 85.527838 
L 84.610852 84.732975 
L 85.006526 83.961456 
L 85.401703 83.21329 
L 85.796362 82.488483 
L 86.190483 81.787036 
L 86.584046 81.108951 
L 86.977033 80.454223 
L 87.369422 79.822848 
L 87.761195 79.21482 
L 88.152331 78.630129 
L 88.542812 78.068763 
L 88.932618 77.530706 
L 89.321731 77.015942 
L 89.710131 76.524452 
L 90.0978 76.056214 
L 90.484718 75.611203 
L 90.870868 75.189395 
L 91.25623 74.790759 
L 91.640786 74.415265 
L 92.02452 74.062878 
L 92.407411 73.733565 
L 92.789442 73.427286 
L 93.170596 73.144001 
L 93.550854 72.883668 
L 93.9302 72.646242 
L 94.308616 72.431676 
L 94.686085 72.239921 
L 95.062591 72.070925 
L 95.438115 71.924635 
L 95.812642 71.800995 
L 96.186155 71.699948 
L 96.558638 71.621433 
L 96.930075 71.565388 
L 97.300449 71.531749 
L 97.669745 71.520451 
L 98.037947 71.531425 
L 98.40504 71.5646 
L 98.771008 71.619906 
L 99.135837 71.697267 
L 99.499511 71.796608 
L 99.862016 71.91785 
L 100.223337 72.060914 
L 100.58346 72.225719 
L 100.94237 72.41218 
L 101.300054 72.620212 
L 101.656498 72.849729 
L 102.011689 73.100641 
L 102.365612 73.372858 
L 102.718254 73.666287 
L 103.069604 73.980835 
L 103.419647 74.316406 
L 103.76837 74.672902 
L 104.115764 75.050224 
L 104.461813 75.448273 
L 104.806506 75.866945 
L 105.149833 76.306137 
L 105.49178 76.765746 
L 105.832337 77.245663 
L 106.171493 77.745781 
L 106.509235 78.265991 
L 106.845553 78.80618 
L 107.180439 79.36624 
L 107.513878 79.946052 
L 107.845863 80.545506 
L 108.176383 81.164483 
L 108.505429 81.802869 
L 108.83299 82.460542 
L 109.159057 83.137385 
L 109.483623 83.833276 
L 109.806675 84.548092 
" clip-path="url(#pcd48862d17)" style="fill: none; stroke: #1f77b4; stroke-width: 1.5"/>
    <path d="M 79.167147 116.745165 
L 79.572108 115.251949 
L 79.977101 113.78096 
L 80.3821 112.332288 
L 80.787086 110.90601 
L 81.192038 109.502199 
L 81.596932 108.120939 
L 82.001748 106.762297 
L 82.406463 105.426347 
L 82.811058 104.113147 
L 83.215508 102.822776 
L 83.619793 101.555288 
L 84.023892 100.310745 
L 84.427783 99.089208 
L 84.831443 97.890731 
L 85.234854 96.715364 
L 85.637991 95.563164 
L 86.040834 94.434174 
L 86.443364 93.328438 
L 86.845555 92.246005 
L 87.247389 91.186912 
L 87.648844 90.151194 
L 88.049899 89.138893 
L 88.450533 88.150038 
L 88.850726 87.184657 
L 89.250454 86.242783 
L 89.649699 85.324438 
L 90.04844 84.429644 
L 90.446656 83.558422 
L 90.844326 82.710792 
L 91.24143 81.886765 
L 91.637948 81.086357 
L 92.033859 80.309574 
L 92.429143 79.556427 
L 92.82378 78.82692 
L 93.21775 78.121055 
L 93.611033 77.438832 
L 94.00361 76.780248 
L 94.395461 76.145297 
L 94.786566 75.533975 
L 95.176906 74.946268 
L 95.566462 74.382165 
L 95.955215 73.841651 
L 96.343146 73.324708 
L 96.730235 72.831317 
L 97.116465 72.361454 
L 97.501817 71.915096 
L 97.886272 71.492216 
L 98.269812 71.092782 
L 98.652419 70.716765 
L 99.034076 70.364127 
L 99.414763 70.034836 
L 99.794464 69.728849 
L 100.173161 69.446127 
L 100.550837 69.186625 
L 100.927475 68.950298 
L 101.303057 68.737098 
L 101.677567 68.546974 
L 102.050988 68.379874 
L 102.423304 68.235741 
L 102.794499 68.114521 
L 103.164556 68.016153 
L 103.533459 67.940576 
L 103.901194 67.887727 
L 104.267743 67.857539 
L 104.633092 67.849946 
L 104.997226 67.864878 
L 105.360129 67.902262 
L 105.721788 67.962025 
L 106.082186 68.044092 
L 106.44131 68.148384 
L 106.799146 68.274822 
L 107.155678 68.423324 
L 107.510895 68.593807 
L 107.864782 68.786185 
L 108.217325 69.000371 
L 108.568512 69.236276 
L 108.918329 69.493809 
L 109.266764 69.772878 
L 109.613803 70.073388 
L 109.959435 70.395243 
L 110.303647 70.738347 
L 110.646427 71.102597 
L 110.987765 71.487896 
L 111.327646 71.894138 
L 111.666061 72.321219 
L 112.002999 72.769037 
L 112.338447 73.237481 
L 112.672396 73.726443 
L 113.004836 74.235814 
L 113.335755 74.765482 
L 113.665143 75.315331 
L 113.992992 75.885252 
L 114.31929 76.475123 
L 114.644028 77.084831 
L 114.967197 77.714256 
L 115.28879 78.363282 
L 115.608795 79.031783 
L 115.927205 79.719639 
L 116.244011 80.426727 
L 116.559205 81.152921 
" clip-path="url(#pcd48862d17)" style="fill: none; stroke: #1f77b4; stroke-width: 1.5"/>
    <path d="M 86.266001 111.06794 
L 86.675953 109.55782 
L 87.085808 108.070273 
L 87.495543 106.605391 
L 87.905136 105.163252 
L 88.314566 103.743932 
L 88.723809 102.347516 
L 89.132844 100.974072 
L 89.541649 99.623676 
L 89.950203 98.29639 
L 90.358481 96.99229 
L 90.766463 95.711434 
L 91.174128 94.453885 
L 91.581451 93.219705 
L 91.988412 92.008948 
L 92.39499 90.821668 
L 92.801162 89.65792 
L 93.206906 88.51775 
L 93.612202 87.401202 
L 94.017026 86.308325 
L 94.421359 85.239157 
L 94.825179 84.193735 
L 95.228462 83.172101 
L 95.63119 82.174284 
L 96.033342 81.200313 
L 96.434894 80.25022 
L 96.835826 79.32403 
L 97.236119 78.421763 
L 97.635751 77.543441 
L 98.0347 76.689083 
L 98.432948 75.858703 
L 98.830472 75.052313 
L 99.227253 74.269922 
L 99.623271 73.51154 
L 100.018505 72.777171 
L 100.412937 72.066814 
L 100.806544 71.380474 
L 101.199308 70.718143 
L 101.59121 70.079817 
L 101.98223 69.465487 
L 102.372347 68.875146 
L 102.761545 68.308776 
L 103.149802 67.766364 
L 103.537102 67.247889 
L 103.923424 66.753335 
L 104.308749 66.282674 
L 104.693061 65.835883 
L 105.076341 65.412932 
L 105.458569 65.013793 
L 105.839729 64.638428 
L 106.219804 64.286805 
L 106.598774 63.958886 
L 106.976623 63.654631 
L 107.353334 63.373994 
L 107.728889 63.116933 
L 108.103271 62.8834 
L 108.476465 62.673345 
L 108.848452 62.486715 
L 109.219218 62.323458 
L 109.588746 62.183515 
L 109.95702 62.066829 
L 110.324025 61.973336 
L 110.689743 61.902977 
L 111.054162 61.855682 
L 111.417265 61.831387 
L 111.779037 61.830019 
L 112.139463 61.851511 
L 112.498529 61.895784 
L 112.856222 61.962765 
L 113.212526 62.052374 
L 113.567426 62.164534 
L 113.920912 62.299159 
L 114.272967 62.456168 
L 114.623579 62.635473 
L 114.972736 62.836988 
L 115.320422 63.060622 
L 115.666628 63.306284 
L 116.01134 63.573881 
L 116.354545 63.863316 
L 116.696232 64.174493 
L 117.036389 64.507314 
L 117.375004 64.861678 
L 117.712065 65.237483 
L 118.047564 65.634625 
L 118.381486 66.052997 
L 118.713822 66.492494 
L 119.044563 66.953007 
L 119.373696 67.434426 
L 119.701212 67.936638 
L 120.027103 68.459531 
L 120.351357 69.00299 
L 120.673965 69.566897 
L 120.99492 70.15114 
L 121.31421 70.755592 
L 121.631827 71.380139 
L 121.947764 72.024657 
L 122.262012 72.689026 
L 122.574562 73.373118 
L 122.885407 74.07681 
L 123.19454 74.799976 
L 123.501952 75.542486 
" clip-path="url(#pcd48862d17)" style="fill: none; stroke: #1f77b4; stroke-width: 1.5"/>
    <path d="M 93.551058 102.94972 
L 93.966883 101.419348 
L 94.382478 99.911988 
L 94.797818 98.427736 
L 95.212882 96.966671 
L 95.627647 95.528871 
L 96.042089 94.114424 
L 96.456186 92.7234 
L 96.869916 91.355875 
L 97.283257 90.011914 
L 97.696184 88.691595 
L 98.108676 87.394978 
L 98.520711 86.122125 
L 98.932266 84.873103 
L 99.343318 83.647965 
L 99.753846 82.446767 
L 100.163827 81.269564 
L 100.573239 80.116405 
L 100.982061 78.987334 
L 101.390269 77.8824 
L 101.797842 76.801644 
L 102.20476 75.745103 
L 102.610999 74.712818 
L 103.016538 73.70482 
L 103.421357 72.721139 
L 103.825432 71.761807 
L 104.228744 70.826849 
L 104.631271 69.916284 
L 105.032992 69.030137 
L 105.433886 68.168425 
L 105.833933 67.331163 
L 106.233112 66.518362 
L 106.631402 65.730031 
L 107.028783 64.96618 
L 107.425234 64.226813 
L 107.820736 63.51193 
L 108.215269 62.821529 
L 108.608813 62.155609 
L 109.001348 61.514162 
L 109.392855 60.897179 
L 109.783314 60.30465 
L 110.172707 59.73656 
L 110.561014 59.192891 
L 110.948216 58.673626 
L 111.334296 58.17874 
L 111.719233 57.70821 
L 112.103011 57.262009 
L 112.48561 56.840108 
L 112.867014 56.442475 
L 113.247203 56.069072 
L 113.626163 55.719865 
L 114.003872 55.394814 
L 114.380315 55.093876 
L 114.755476 54.817006 
L 115.129337 54.564158 
L 115.501881 54.335283 
L 115.873092 54.130328 
L 116.242954 53.94924 
L 116.611452 53.79196 
L 116.978568 53.658431 
L 117.344288 53.548592 
L 117.708596 53.462378 
L 118.071477 53.399726 
L 118.432916 53.360565 
L 118.792898 53.344827 
L 119.151409 53.352439 
L 119.508434 53.383325 
L 119.86396 53.437409 
L 120.217972 53.514613 
L 120.570457 53.614857 
L 120.9214 53.738056 
L 121.27079 53.884125 
L 121.618613 54.052978 
L 121.964857 54.244526 
L 122.309508 54.458677 
L 122.652554 54.695338 
L 122.993984 54.954415 
L 123.333786 55.23581 
L 123.671947 55.539428 
L 124.008457 55.865164 
L 124.343305 56.212918 
L 124.676478 56.582587 
L 125.007967 56.974064 
L 125.337763 57.387241 
L 125.665852 57.822009 
L 125.992226 58.278259 
L 126.316876 58.755876 
L 126.639791 59.25475 
L 126.960962 59.774762 
L 127.280382 60.315797 
L 127.598039 60.877736 
L 127.913925 61.460457 
L 128.228034 62.063844 
L 128.540355 62.687766 
L 128.850882 63.332106 
L 129.159606 63.996735 
L 129.466521 64.68153 
L 129.771618 65.386359 
L 130.074891 66.111094 
L 130.376334 66.855605 
L 130.675939 67.619758 
" clip-path="url(#pcd48862d17)" style="fill: none; stroke: #1f77b4; stroke-width: 1.5"/>
    <path d="M 24.318635 81.868935 
L 25.025641 83.182889 
L 25.731159 84.473354 
L 26.435225 85.740419 
L 27.137878 86.984178 
L 27.839158 88.204725 
L 28.5391 89.402139 
L 29.237744 90.57651 
L 29.935126 91.727916 
L 30.631287 92.856445 
L 31.326259 93.962164 
L 32.020082 95.045152 
L 32.712795 96.105484 
L 33.40443 97.143223 
L 34.095027 98.158442 
L 34.784623 99.151203 
L 35.47325 100.121569 
L 36.160949 101.069599 
L 36.847755 101.995355 
L 37.533702 102.898888 
L 38.218828 103.780253 
L 38.903169 104.639501 
L 39.586759 105.476678 
L 40.269634 106.291834 
L 40.951832 107.08501 
L 41.633386 107.856249 
L 42.314331 108.605588 
L 42.994704 109.333068 
L 43.674541 110.038721 
L 44.353875 110.722579 
L 45.032743 111.384673 
L 45.711178 112.025033 
L 46.389219 112.643682 
L 47.066898 113.240644 
L 47.74425 113.815941 
L 48.421312 114.36959 
L 49.098118 114.901611 
L 49.774704 115.412016 
L 50.451104 115.900818 
L 51.127353 116.368029 
L 51.803488 116.813651 
L 52.479542 117.237696 
L 53.155551 117.640163 
L 53.831551 118.021055 
L 54.507577 118.380372 
L 55.183663 118.718108 
L 55.859846 119.034257 
L 56.536161 119.328813 
L 57.212643 119.601764 
L 57.889328 119.853099 
L 58.566254 120.082803 
L 59.243452 120.290857 
L 59.920961 120.477243 
L 60.598816 120.64194 
L 61.277053 120.784923 
L 61.955709 120.906165 
L 62.63482 121.005638 
L 63.314422 121.08331 
L 63.994552 121.13915 
L 64.675247 121.17312 
L 65.356543 121.185182 
L 66.038477 121.175298 
L 66.721087 121.14342 
L 67.404411 121.089506 
L 68.088485 121.013508 
L 68.773346 120.915374 
L 69.459035 120.795054 
L 70.145586 120.65249 
L 70.833041 120.487625 
L 71.521438 120.300398 
L 72.210812 120.090746 
L 72.901207 119.858606 
L 73.592658 119.603907 
L 74.285208 119.326579 
L 74.978895 119.026548 
L 75.673757 118.703739 
L 76.369837 118.358074 
L 77.067177 117.989469 
L 77.765813 117.597841 
L 78.465788 117.183103 
L 79.167147 116.745165 
L 79.869926 116.283934 
L 80.574169 115.799314 
L 81.279922 115.291208 
L 81.987221 114.759515 
L 82.696114 114.204128 
L 83.406645 113.624942 
L 84.118853 113.021844 
L 84.832785 112.394724 
L 85.548487 111.743462 
L 86.266001 111.06794 
L 86.985373 110.368036 
L 87.706652 109.64362 
L 88.429879 108.894568 
L 89.155103 108.120743 
L 89.882371 107.322012 
L 90.611733 106.498229 
L 91.343233 105.649259 
L 92.07692 104.774951 
L 92.812847 103.875155 
L 93.551058 102.94972 
" clip-path="url(#pcd48862d17)" style="fill: none; stroke: #1f77b4; stroke-width: 1.5"/>
    <path d="M 28.279656 68.264617 
L 28.985001 69.583979 
L 29.688929 70.879613 
L 30.391474 72.151607 
L 31.092677 73.400058 
L 31.792577 74.62506 
L 32.491208 75.82669 
L 33.188611 77.005041 
L 33.884822 78.160191 
L 34.579881 79.292228 
L 35.27382 80.401219 
L 35.96668 81.487244 
L 36.658498 82.550377 
L 37.349307 83.590684 
L 38.039147 84.608235 
L 38.728055 85.603096 
L 39.416063 86.575325 
L 40.103211 87.524986 
L 40.789535 88.45214 
L 41.475069 89.356836 
L 42.159849 90.239131 
L 42.843914 91.099077 
L 43.527296 91.936718 
L 44.210031 92.752104 
L 44.892158 93.545279 
L 45.573708 94.316282 
L 46.254719 95.065153 
L 46.935227 95.791931 
L 47.615265 96.496649 
L 48.29487 97.179339 
L 48.974077 97.840032 
L 49.65292 98.478756 
L 50.331436 99.095536 
L 51.00966 99.690396 
L 51.687626 100.263355 
L 52.36537 100.814434 
L 53.042927 101.343647 
L 53.720332 101.851011 
L 54.397621 102.336537 
L 55.074829 102.800235 
L 55.75199 103.242109 
L 56.42914 103.662169 
L 57.106315 104.060415 
L 57.78355 104.43685 
L 58.46088 104.791468 
L 59.13834 105.12427 
L 59.815968 105.435246 
L 60.493797 105.724389 
L 61.171863 105.991687 
L 61.850203 106.23713 
L 62.528854 106.4607 
L 63.207848 106.662379 
L 63.887224 106.842147 
L 64.567017 106.999983 
L 65.247264 107.135861 
L 65.928001 107.249754 
L 66.609265 107.341632 
L 67.291091 107.411465 
L 67.973519 107.459216 
L 68.656583 107.484851 
L 69.340321 107.488329 
L 70.02477 107.46961 
L 70.709969 107.428648 
L 71.395954 107.365399 
L 72.082764 107.279812 
L 72.770435 107.171838 
L 73.459008 107.04142 
L 74.148519 106.888504 
L 74.839008 106.71303 
L 75.530514 106.514936 
L 76.223074 106.294157 
L 76.91673 106.05063 
L 77.611519 105.784283 
L 78.307483 105.495044 
L 79.004662 105.182837 
L 79.703094 104.847588 
L 80.402821 104.489214 
L 81.103886 104.107633 
L 81.806327 103.702759 
L 82.510186 103.274504 
L 83.215508 102.822776 
L 83.92233 102.34748 
L 84.630698 101.848521 
L 85.340655 101.325797 
L 86.052242 100.779206 
L 86.765503 100.208643 
L 87.480485 99.613995 
L 88.197227 98.995153 
L 88.915777 98.352002 
L 89.636181 97.68442 
L 90.358481 96.99229 
L 91.082725 96.275485 
L 91.808961 95.533874 
L 92.537231 94.767333 
L 93.267586 93.97572 
L 94.000072 93.1589 
L 94.73474 92.316728 
L 95.471634 91.449063 
L 96.210806 90.555755 
L 96.952308 89.63665 
L 97.696184 88.691595 
" clip-path="url(#pcd48862d17)" style="fill: none; stroke: #1f77b4; stroke-width: 1.5"/>
    <path d="M 32.320305 56.954651 
L 33.022734 58.276188 
L 33.72382 59.573842 
L 34.423599 60.847702 
L 35.122109 62.097864 
L 35.819392 63.32442 
L 36.515479 64.527451 
L 37.210411 65.707048 
L 37.904225 66.86329 
L 38.59696 67.996263 
L 39.288648 69.106036 
L 39.979329 70.192689 
L 40.669041 71.256295 
L 41.357817 72.29692 
L 42.045695 73.314635 
L 42.732712 74.309505 
L 43.418902 75.281589 
L 44.104303 76.23095 
L 44.788951 77.157649 
L 45.47288 78.061736 
L 46.156126 78.943266 
L 46.838728 79.802293 
L 47.520716 80.638859 
L 48.202129 81.453014 
L 48.883004 82.244804 
L 49.563372 83.014266 
L 50.24327 83.761441 
L 50.922735 84.486367 
L 51.601802 85.189076 
L 52.280503 85.869601 
L 52.958877 86.527974 
L 53.636956 87.16422 
L 54.314778 87.778365 
L 54.992377 88.370433 
L 55.669787 88.940443 
L 56.347045 89.488416 
L 57.024184 90.014365 
L 57.701241 90.518306 
L 58.378251 91.000251 
L 59.055248 91.460207 
L 59.732268 91.898183 
L 60.409347 92.314184 
L 61.086518 92.708212 
L 61.763819 93.080267 
L 62.441284 93.430347 
L 63.118949 93.758448 
L 63.796849 94.064562 
L 64.475021 94.348681 
L 65.153499 94.610794 
L 65.832319 94.850887 
L 66.511519 95.068946 
L 67.191133 95.264949 
L 67.871197 95.438878 
L 68.551748 95.590709 
L 69.232822 95.720418 
L 69.914455 95.827975 
L 70.596685 95.913352 
L 71.279548 95.976516 
L 71.963081 96.017432 
L 72.647321 96.036063 
L 73.332306 96.032369 
L 74.018071 96.006309 
L 74.704657 95.957837 
L 75.392099 95.886905 
L 76.080437 95.793466 
L 76.769707 95.677467 
L 77.459949 95.538852 
L 78.151201 95.377565 
L 78.843502 95.193547 
L 79.536891 94.986734 
L 80.231407 94.757063 
L 80.92709 94.504465 
L 81.623979 94.22887 
L 82.322115 93.930206 
L 83.021538 93.608396 
L 83.722287 93.263363 
L 84.424405 92.895026 
L 85.127934 92.503299 
L 85.832911 92.088099 
L 86.539382 91.649335 
L 87.247389 91.186912 
L 87.956971 90.700738 
L 88.668173 90.190715 
L 89.381039 89.656739 
L 90.095611 89.09871 
L 90.811932 88.516518 
L 91.53005 87.910053 
L 92.250005 87.279202 
L 92.971844 86.62385 
L 93.695615 85.943876 
L 94.421359 85.239157 
L 95.149124 84.50957 
L 95.878959 83.754979 
L 96.610908 82.97526 
L 97.34502 82.170271 
L 98.081342 81.339876 
L 98.819927 80.483926 
L 99.560818 79.602281 
L 100.304066 78.694789 
L 101.049726 77.761295 
L 101.797842 76.801644 
" clip-path="url(#pcd48862d17)" style="fill: none; stroke: #1f77b4; stroke-width: 1.5"/>
    <path d="M 36.419138 47.985383 
L 37.117425 49.30585 
L 37.814449 50.602365 
L 38.510244 51.875016 
L 39.204848 53.123897 
L 39.898302 54.349103 
L 40.590639 55.550712 
L 41.281897 56.728815 
L 41.972113 57.883491 
L 42.661326 59.014827 
L 43.349568 60.12289 
L 44.036879 61.207761 
L 44.723295 62.269512 
L 45.40885 63.308208 
L 46.093581 64.32392 
L 46.777526 65.316713 
L 47.460718 66.286648 
L 48.143192 67.233785 
L 48.824988 68.158184 
L 49.506137 69.059896 
L 50.186676 69.938976 
L 50.866642 70.795477 
L 51.546067 71.629442 
L 52.224988 72.44092 
L 52.903443 73.229956 
L 53.581462 73.996587 
L 54.259082 74.740855 
L 54.936339 75.462795 
L 55.613268 76.162442 
L 56.289903 76.839826 
L 56.966279 77.49498 
L 57.642431 78.127929 
L 58.318396 78.738698 
L 58.994206 79.327311 
L 59.669897 79.893787 
L 60.345504 80.438145 
L 61.021062 80.9604 
L 61.696607 81.460567 
L 62.372172 81.938657 
L 63.047794 82.394678 
L 63.723506 82.828638 
L 64.399345 83.240541 
L 65.075345 83.630389 
L 65.751542 83.998182 
L 66.427971 84.343918 
L 67.104668 84.667592 
L 67.781667 84.969197 
L 68.459005 85.248724 
L 69.136717 85.506162 
L 69.814838 85.741495 
L 70.493407 85.95471 
L 71.172456 86.145785 
L 71.852022 86.314702 
L 72.532142 86.461435 
L 73.212852 86.585961 
L 73.894189 86.68825 
L 74.576189 86.768273 
L 75.258889 86.825997 
L 75.942326 86.861387 
L 76.626536 86.874404 
L 77.311557 86.86501 
L 77.997426 86.833161 
L 78.684182 86.778813 
L 79.371862 86.701918 
L 80.060504 86.602427 
L 80.750144 86.480287 
L 81.440824 86.335442 
L 82.13258 86.167837 
L 82.825452 85.97741 
L 83.51948 85.764099 
L 84.2147 85.527838 
L 84.911155 85.268561 
L 85.608883 84.986196 
L 86.307926 84.68067 
L 87.008322 84.351908 
L 87.710112 83.99983 
L 88.413338 83.624356 
L 89.118042 83.2254 
L 89.824263 82.802877 
L 90.532045 82.356697 
L 91.24143 81.886765 
L 91.952459 81.392988 
L 92.665176 80.875268 
L 93.379626 80.333501 
L 94.095848 79.767585 
L 94.81389 79.177411 
L 95.533796 78.56287 
L 96.255608 77.923846 
L 96.979373 77.260225 
L 97.705139 76.571884 
L 98.432948 75.858703 
L 99.162847 75.120556 
L 99.894886 74.357308 
L 100.629109 73.568834 
L 101.365564 72.754992 
L 102.104301 71.915644 
L 102.84537 71.050643 
L 103.588816 70.159849 
L 104.334691 69.243107 
L 105.083048 68.300263 
L 105.833933 67.331163 
" clip-path="url(#pcd48862d17)" style="fill: none; stroke: #1f77b4; stroke-width: 1.5"/>
    <path d="M 40.554333 41.378444 
L 41.247296 42.694628 
L 41.939079 43.986875 
L 42.629714 45.255272 
L 43.319239 46.499913 
L 44.007694 47.720892 
L 44.695112 48.918287 
L 45.38153 50.092187 
L 46.066985 51.242671 
L 46.751515 52.369825 
L 47.435153 53.473716 
L 48.117935 54.554424 
L 48.799901 55.61202 
L 49.481081 56.64657 
L 50.161513 57.658144 
L 50.841235 58.646804 
L 51.520278 59.612613 
L 52.198679 60.555629 
L 52.876475 61.475912 
L 53.553697 62.373515 
L 54.230384 63.248489 
L 54.90657 64.100887 
L 55.582288 64.930753 
L 56.257574 65.738134 
L 56.932465 66.523076 
L 57.606991 67.285615 
L 58.28119 68.025792 
L 58.955098 68.743643 
L 59.628746 69.439201 
L 60.302171 70.112497 
L 60.975407 70.763563 
L 61.648488 71.392422 
L 62.32145 71.999103 
L 62.994327 72.583625 
L 63.667153 73.146009 
L 64.339963 73.686274 
L 65.012792 74.204433 
L 65.685675 74.700503 
L 66.358646 75.174493 
L 67.03174 75.626411 
L 67.704992 76.056265 
L 68.378436 76.464059 
L 69.052109 76.849795 
L 69.726044 77.213472 
L 70.400277 77.555088 
L 71.074842 77.874638 
L 71.749776 78.172114 
L 72.425114 78.447509 
L 73.10089 78.700809 
L 73.77714 78.932 
L 74.453902 79.141068 
L 75.131209 79.327991 
L 75.809097 79.49275 
L 76.487603 79.635322 
L 77.166762 79.75568 
L 77.846612 79.853796 
L 78.527187 79.929641 
L 79.208526 79.983181 
L 79.890665 80.014381 
L 80.573641 80.023203 
L 81.25749 80.009608 
L 81.94225 79.973553 
L 82.627958 79.914993 
L 83.314653 79.833881 
L 84.002372 79.730167 
L 84.691152 79.603799 
L 85.381033 79.454721 
L 86.072052 79.282876 
L 86.764249 79.088205 
L 87.457663 78.870644 
L 88.152331 78.630129 
L 88.848296 78.366592 
L 89.545594 78.079963 
L 90.244268 77.770169 
L 90.944358 77.437133 
L 91.645902 77.080777 
L 92.348943 76.701021 
L 93.053524 76.297779 
L 93.759682 75.870968 
L 94.467461 75.420496 
L 95.176906 74.946268 
L 95.888054 74.448193 
L 96.600951 73.926171 
L 97.315642 73.380101 
L 98.032166 72.809879 
L 98.75057 72.215399 
L 99.470899 71.596549 
L 100.193195 70.953216 
L 100.917504 70.285286 
L 101.643874 69.592636 
L 102.372347 68.875146 
L 103.102972 68.13269 
L 103.835798 67.365136 
L 104.570867 66.572357 
L 105.308229 65.754212 
L 106.047934 64.910565 
L 106.790031 64.041268 
L 107.534566 63.146182 
L 108.281591 62.225153 
L 109.031158 61.278027 
L 109.783314 60.30465 
" clip-path="url(#pcd48862d17)" style="fill: none; stroke: #1f77b4; stroke-width: 1.5"/>
    <path d="M 44.704078 37.130815 
L 45.390591 38.439576 
L 46.076007 39.724498 
L 46.760358 40.985668 
L 47.443683 42.223178 
L 48.12602 43.437122 
L 48.807401 44.627575 
L 49.487863 45.794628 
L 50.167442 46.938356 
L 50.846176 48.058846 
L 51.524096 49.156164 
L 52.20124 50.230387 
L 52.877644 51.281588 
L 53.55334 52.309829 
L 54.228365 53.315182 
L 54.902756 54.297708 
L 55.576543 55.257466 
L 56.249763 56.194517 
L 56.922453 57.10892 
L 57.594643 58.000723 
L 58.26637 58.869981 
L 58.93767 59.716746 
L 59.608574 60.541059 
L 60.279118 61.342968 
L 60.949338 62.122517 
L 61.619265 62.879743 
L 62.288935 63.614686 
L 62.958383 64.327381 
L 63.627642 65.017861 
L 64.296746 65.686157 
L 64.96573 66.332299 
L 65.634628 66.956311 
L 66.303474 67.558221 
L 66.972302 68.138048 
L 67.641146 68.695812 
L 68.310041 69.231533 
L 68.979021 69.745223 
L 69.64812 70.236897 
L 70.317374 70.706567 
L 70.986814 71.154238 
L 71.656478 71.579919 
L 72.326398 71.983614 
L 72.996609 72.365324 
L 73.667148 72.725049 
L 74.338046 73.062786 
L 75.009341 73.37853 
L 75.681066 73.672274 
L 76.353256 73.944009 
L 77.025948 74.193722 
L 77.699175 74.4214 
L 78.372974 74.627027 
L 79.047379 74.810583 
L 79.722425 74.972048 
L 80.39815 75.111398 
L 81.074588 75.228609 
L 81.751776 75.323652 
L 82.429749 75.396496 
L 83.108544 75.44711 
L 83.788198 75.475458 
L 84.468747 75.481502 
L 85.150227 75.465204 
L 85.832677 75.426521 
L 86.516132 75.365409 
L 87.200631 75.281819 
L 87.886211 75.175704 
L 88.572909 75.04701 
L 89.260764 74.895684 
L 89.949814 74.721669 
L 90.640098 74.524905 
L 91.331654 74.305329 
L 92.02452 74.062878 
L 92.718738 73.797484 
L 93.414344 73.509079 
L 94.111382 73.197588 
L 94.809889 72.862937 
L 95.509905 72.505048 
L 96.211472 72.123842 
L 96.914633 71.719233 
L 97.619425 71.291138 
L 98.325891 70.839467 
L 99.034076 70.364127 
L 99.744018 69.865026 
L 100.455761 69.342067 
L 101.169351 68.795146 
L 101.884826 68.224164 
L 102.602233 67.629014 
L 103.321618 67.009585 
L 104.043021 66.365766 
L 104.766489 65.697444 
L 105.492069 65.004496 
L 106.219804 64.286805 
L 106.949742 63.544245 
L 107.681931 62.776685 
L 108.416414 61.984 
L 109.153241 61.16605 
L 109.89246 60.322701 
L 110.634122 59.453806 
L 111.378272 58.559226 
L 112.124962 57.638812 
L 112.874243 56.692408 
L 113.626163 55.719865 
" clip-path="url(#pcd48862d17)" style="fill: none; stroke: #1f77b4; stroke-width: 1.5"/>
    <path d="M 48.846937 35.215521 
L 49.525936 36.513831 
L 50.203924 37.788482 
L 50.880931 39.039559 
L 51.556996 40.267153 
L 52.232156 41.471354 
L 52.906442 42.65224 
L 53.579891 43.809896 
L 54.252538 44.9444 
L 54.92442 46.055835 
L 55.595568 47.144266 
L 56.266017 48.20977 
L 56.935806 49.252417 
L 57.604963 50.27227 
L 58.273526 51.269398 
L 58.94153 52.243862 
L 59.609006 53.195721 
L 60.27599 54.125034 
L 60.942517 55.031857 
L 61.608619 55.916241 
L 62.27433 56.778238 
L 62.939686 57.617898 
L 63.604717 58.435263 
L 64.26946 59.23038 
L 64.933949 60.003293 
L 65.598215 60.754036 
L 66.262293 61.48265 
L 66.926217 62.18917 
L 67.590021 62.873628 
L 68.253736 63.536053 
L 68.9174 64.176476 
L 69.581042 64.79492 
L 70.244699 65.391412 
L 70.908404 65.965972 
L 71.57219 66.51862 
L 72.236091 67.049372 
L 72.90014 67.558244 
L 73.564372 68.045249 
L 74.228821 68.510397 
L 74.89352 68.953697 
L 75.558503 69.375154 
L 76.223804 69.774773 
L 76.889458 70.152556 
L 77.555498 70.508501 
L 78.221959 70.842607 
L 78.888875 71.154868 
L 79.556281 71.445277 
L 80.22421 71.713824 
L 80.892699 71.960499 
L 81.561781 72.185287 
L 82.231492 72.388172 
L 82.901866 72.569135 
L 83.572938 72.728157 
L 84.244743 72.865213 
L 84.917318 72.980279 
L 85.590697 73.073326 
L 86.264916 73.144327 
L 86.940012 73.193247 
L 87.61602 73.220053 
L 88.292976 73.224708 
L 88.970917 73.207172 
L 89.64988 73.167404 
L 90.3299 73.10536 
L 91.011016 73.020993 
L 91.693265 72.914256 
L 92.376682 72.785096 
L 93.061308 72.63346 
L 93.747177 72.459292 
L 94.434331 72.262533 
L 95.122807 72.043122 
L 95.812642 71.800995 
L 96.503877 71.536087 
L 97.196549 71.248328 
L 97.8907 70.937647 
L 98.586368 70.603971 
L 99.283593 70.247222 
L 99.982415 69.867321 
L 100.682877 69.464186 
L 101.385016 69.037734 
L 102.088876 68.587877 
L 102.794499 68.114521 
L 103.501924 67.617578 
L 104.211195 67.09695 
L 104.922357 66.552539 
L 105.635448 65.984243 
L 106.350514 65.391958 
L 107.067601 64.775577 
L 107.786749 64.134987 
L 108.508005 63.470079 
L 109.231415 62.780732 
L 109.95702 62.066829 
L 110.68487 61.328248 
L 111.415011 60.564859 
L 112.147488 59.77654 
L 112.882348 58.963152 
L 113.61964 58.124563 
L 114.359415 57.26063 
L 115.101716 56.371215 
L 115.846594 55.456171 
L 116.594103 54.515346 
L 117.344288 53.548592 
" clip-path="url(#pcd48862d17)" style="fill: none; stroke: #1f77b4; stroke-width: 1.5"/>
    <path d="M 52.962197 35.582887 
L 53.632693 36.867869 
L 54.302262 38.129447 
L 54.970937 39.367706 
L 55.638754 40.582734 
L 56.305748 41.774621 
L 56.97195 42.943442 
L 57.637397 44.089281 
L 58.302123 45.212213 
L 58.966163 46.31232 
L 59.629548 47.389666 
L 60.292314 48.444327 
L 60.954495 49.476371 
L 61.616122 50.48586 
L 62.277231 51.47286 
L 62.937856 52.437433 
L 63.598027 53.379636 
L 64.257779 54.299525 
L 64.917148 55.197158 
L 65.576163 56.072583 
L 66.23486 56.925851 
L 66.893272 57.757012 
L 67.551429 58.566107 
L 68.209367 59.353182 
L 68.86712 60.118278 
L 69.524718 60.861432 
L 70.182195 61.582681 
L 70.839585 62.282061 
L 71.496921 62.959602 
L 72.154234 63.615334 
L 72.811559 64.249287 
L 73.468927 64.861484 
L 74.126374 65.451949 
L 74.783931 66.020704 
L 75.44163 66.567767 
L 76.099507 67.093156 
L 76.757593 67.596885 
L 77.415923 68.078966 
L 78.074528 68.539411 
L 78.733443 68.978227 
L 79.3927 69.395419 
L 80.052334 69.790993 
L 80.712377 70.16495 
L 81.372864 70.517289 
L 82.033828 70.848007 
L 82.695302 71.1571 
L 83.357321 71.444561 
L 84.019919 71.710381 
L 84.683129 71.954548 
L 85.346986 72.177048 
L 86.011526 72.377866 
L 86.67678 72.556983 
L 87.342784 72.71438 
L 88.009573 72.850034 
L 88.677182 72.96392 
L 89.345645 73.056011 
L 90.014998 73.126277 
L 90.685277 73.174688 
L 91.356516 73.20121 
L 92.028752 73.205806 
L 92.70202 73.188438 
L 93.376356 73.149065 
L 94.051797 73.087645 
L 94.72838 73.004131 
L 95.40614 72.898476 
L 96.085113 72.77063 
L 96.76534 72.62054 
L 97.446854 72.448152 
L 98.129696 72.253408 
L 98.813903 72.036247 
L 99.499511 71.796608 
L 100.186561 71.534425 
L 100.875089 71.249633 
L 101.565137 70.94216 
L 102.256742 70.611934 
L 102.949943 70.25888 
L 103.644781 69.882921 
L 104.341298 69.483975 
L 105.039529 69.061962 
L 105.739519 68.616795 
L 106.44131 68.148384 
L 107.144939 67.656641 
L 107.85045 67.14147 
L 108.557887 66.602775 
L 109.267288 66.040458 
L 109.978699 65.454414 
L 110.692165 64.844541 
L 111.407725 64.210728 
L 112.125425 63.552867 
L 112.845312 62.87084 
L 113.567426 62.164534 
L 114.291816 61.433829 
L 115.018528 60.678596 
L 115.747605 59.898717 
L 116.479095 59.094057 
L 117.213046 58.264485 
L 117.949507 57.409862 
L 118.688523 56.530054 
L 119.430144 55.624914 
L 120.174421 54.694297 
L 120.9214 53.738056 
" clip-path="url(#pcd48862d17)" style="fill: none; stroke: #1f77b4; stroke-width: 1.5"/>
    <path d="M 57.030186 38.162323 
L 57.691268 39.431278 
L 58.35151 40.677158 
L 59.010941 41.900045 
L 59.669597 43.100025 
L 60.327513 44.277186 
L 60.984719 45.4316 
L 61.64125 46.563351 
L 62.297139 47.672511 
L 62.952422 48.759161 
L 63.607128 49.823362 
L 64.26129 50.865188 
L 64.914945 51.884707 
L 65.568121 52.881979 
L 66.220853 53.857068 
L 66.873175 54.810035 
L 67.525116 55.740933 
L 68.17671 56.649821 
L 68.827992 57.536754 
L 69.47899 58.401777 
L 70.129739 59.244942 
L 70.780272 60.066297 
L 71.430619 60.865882 
L 72.080813 61.643742 
L 72.730889 62.399918 
L 73.380875 63.134444 
L 74.030805 63.847358 
L 74.680712 64.538694 
L 75.330629 65.208482 
L 75.980585 65.856752 
L 76.630615 66.483531 
L 77.280749 67.088844 
L 77.931023 67.672714 
L 78.581466 68.235161 
L 79.232111 68.776204 
L 79.882991 69.29586 
L 80.534138 69.794142 
L 81.185586 70.271064 
L 81.837365 70.726636 
L 82.48951 71.160864 
L 83.142052 71.573757 
L 83.795024 71.965316 
L 84.448459 72.335545 
L 85.102391 72.684442 
L 85.756851 73.012006 
L 86.411874 73.318231 
L 87.067492 73.60311 
L 87.723739 73.866634 
L 88.380648 74.108794 
L 89.038253 74.329574 
L 89.696588 74.528962 
L 90.355685 74.706937 
L 91.015579 74.863481 
L 91.676305 74.998572 
L 92.337895 75.112186 
L 93.000385 75.204296 
L 93.663809 75.274874 
L 94.328202 75.32389 
L 94.9936 75.35131 
L 95.660035 75.3571 
L 96.327545 75.341221 
L 96.996163 75.303635 
L 97.665927 75.2443 
L 98.336873 75.16317 
L 99.009035 75.0602 
L 99.682449 74.935342 
L 100.357154 74.788542 
L 101.033184 74.619749 
L 101.710578 74.428906 
L 102.389372 74.215955 
L 103.069604 73.980835 
L 103.751312 73.723484 
L 104.434532 73.443835 
L 105.119305 73.14182 
L 105.805669 72.81737 
L 106.49366 72.47041 
L 107.183319 72.100867 
L 107.874688 71.708659 
L 108.567803 71.29371 
L 109.262704 70.855934 
L 109.959435 70.395243 
L 110.658033 69.911553 
L 111.35854 69.40477 
L 112.061 68.8748 
L 112.76545 68.321548 
L 113.471935 67.744913 
L 114.1805 67.144793 
L 114.891182 66.521082 
L 115.604029 65.873674 
L 116.319084 65.202455 
L 117.036389 64.507314 
L 117.75599 63.788135 
L 118.477934 63.044793 
L 119.202262 62.277172 
L 119.929023 61.485141 
L 120.658262 60.668573 
L 121.39003 59.827333 
L 122.124368 58.961289 
L 122.861327 58.0703 
L 123.600958 57.154224 
L 124.343305 56.212918 
" clip-path="url(#pcd48862d17)" style="fill: none; stroke: #1f77b4; stroke-width: 1.5"/>
    <path d="M 61.032539 42.864518 
L 61.683382 44.114955 
L 62.333469 45.342712 
L 62.982828 46.547867 
L 63.631494 47.730506 
L 64.279502 48.890712 
L 64.926879 50.028557 
L 65.573661 51.144122 
L 66.219879 52.237477 
L 66.865567 53.3087 
L 67.510754 54.357851 
L 68.155474 55.385003 
L 68.79976 56.39022 
L 69.443641 57.373561 
L 70.087149 58.33509 
L 70.730319 59.274864 
L 71.373179 60.192936 
L 72.015762 61.089362 
L 72.658101 61.964197 
L 73.300224 62.817484 
L 73.942165 63.649275 
L 74.583957 64.459614 
L 75.225627 65.248542 
L 75.867209 66.016102 
L 76.508736 66.762334 
L 77.150237 67.487272 
L 77.791743 68.190952 
L 78.433287 68.873407 
L 79.074901 69.534668 
L 79.716614 70.174762 
L 80.358459 70.793715 
L 81.000467 71.391555 
L 81.642671 71.968301 
L 82.2851 72.523973 
L 82.927787 73.05859 
L 83.570764 73.572171 
L 84.214061 74.064724 
L 84.857712 74.536266 
L 85.501747 74.986806 
L 86.146198 75.416352 
L 86.791098 75.824908 
L 87.436478 76.21248 
L 88.08237 76.579068 
L 88.728807 76.924675 
L 89.375821 77.249294 
L 90.023443 77.552924 
L 90.671707 77.835557 
L 91.320646 78.097184 
L 91.970291 78.337796 
L 92.620676 78.55738 
L 93.271834 78.755922 
L 93.923797 78.933402 
L 94.576598 79.089803 
L 95.230272 79.225104 
L 95.88485 79.339282 
L 96.540369 79.432311 
L 97.196859 79.504163 
L 97.854357 79.55481 
L 98.512896 79.584217 
L 99.17251 79.592354 
L 99.833233 79.579182 
L 100.495101 79.544666 
L 101.158148 79.48876 
L 101.82241 79.411427 
L 102.487922 79.312618 
L 103.154718 79.192288 
L 103.822835 79.050385 
L 104.492309 78.88686 
L 105.163176 78.701658 
L 105.835473 78.494721 
L 106.509235 78.265991 
L 107.184501 78.015409 
L 107.861306 77.742909 
L 108.539689 77.448426 
L 109.219688 77.131892 
L 109.90134 76.793237 
L 110.584683 76.432386 
L 111.269759 76.049264 
L 111.956602 75.643794 
L 112.645253 75.215895 
L 113.335755 74.765482 
L 114.028142 74.292471 
L 114.722458 73.796774 
L 115.418745 73.278298 
L 116.117039 72.736952 
L 116.817385 72.172639 
L 117.519825 71.585258 
L 118.224399 70.974708 
L 118.93115 70.340886 
L 119.640123 69.683683 
L 120.351357 69.00299 
L 121.064899 68.298694 
L 121.780794 67.570676 
L 122.499083 66.818824 
L 123.219813 66.043009 
L 123.943029 65.243109 
L 124.66878 64.418994 
L 125.397108 63.570536 
L 126.128062 62.697599 
L 126.861691 61.800045 
L 127.598039 60.877736 
" clip-path="url(#pcd48862d17)" style="fill: none; stroke: #1f77b4; stroke-width: 1.5"/>
    <path d="M 64.952423 49.583939 
L 65.59229 50.813593 
L 66.231483 52.02102 
L 66.870029 53.206298 
L 67.507962 54.369509 
L 68.145316 55.510735 
L 68.782117 56.630043 
L 69.4184 57.727512 
L 70.054194 58.803211 
L 70.689534 59.857215 
L 71.324447 60.889583 
L 71.958965 61.900383 
L 72.59312 62.889681 
L 73.226942 63.857531 
L 73.86046 64.803996 
L 74.49371 65.729131 
L 75.126716 66.632989 
L 75.759513 67.515623 
L 76.392131 68.377085 
L 77.024599 69.21742 
L 77.656949 70.036674 
L 78.289212 70.834894 
L 78.921416 71.612118 
L 79.553594 72.368387 
L 80.185776 73.103741 
L 80.817991 73.818212 
L 81.450271 74.511835 
L 82.082647 75.184644 
L 82.715148 75.836667 
L 83.347804 76.467931 
L 83.980648 77.078462 
L 84.613709 77.668285 
L 85.247018 78.237421 
L 85.880606 78.785889 
L 86.514502 79.313707 
L 87.148739 79.820891 
L 87.783346 80.307455 
L 88.418355 80.773411 
L 89.053798 81.218769 
L 89.689703 81.643536 
L 90.326103 82.047717 
L 90.963029 82.431319 
L 91.600512 82.794341 
L 92.238583 83.136783 
L 92.877274 83.458645 
L 93.516616 83.759922 
L 94.156642 84.040607 
L 94.797382 84.300692 
L 95.438868 84.540167 
L 96.081133 84.759022 
L 96.724209 84.957241 
L 97.368127 85.134807 
L 98.01292 85.291702 
L 98.658621 85.427908 
L 99.305261 85.543402 
L 99.952875 85.638157 
L 100.601495 85.712149 
L 101.251153 85.765349 
L 101.901885 85.797728 
L 102.553721 85.809251 
L 103.206697 85.799883 
L 103.860847 85.76959 
L 104.516204 85.71833 
L 105.172803 85.646064 
L 105.830677 85.552747 
L 106.489862 85.438334 
L 107.150393 85.302779 
L 107.812303 85.14603 
L 108.475631 84.968036 
L 109.14041 84.768742 
L 109.806675 84.548092 
L 110.474465 84.306027 
L 111.143813 84.042487 
L 111.814759 83.757406 
L 112.487338 83.45072 
L 113.161586 83.122362 
L 113.837542 82.77226 
L 114.515245 82.400342 
L 115.19473 82.00653 
L 115.876036 81.590751 
L 116.559205 81.152921 
L 117.244272 80.69296 
L 117.931277 80.210782 
L 118.620262 79.706298 
L 119.311264 79.179421 
L 120.004325 78.630056 
L 120.699487 78.058108 
L 121.396788 77.463478 
L 122.09627 76.846068 
L 122.797979 76.205772 
L 123.501952 75.542486 
L 124.208234 74.8561 
L 124.91687 74.146501 
L 125.6279 73.413579 
L 126.341369 72.657212 
L 127.057322 71.877282 
L 127.775806 71.073663 
L 128.496862 70.246234 
L 129.220538 69.394861 
L 129.946883 68.519414 
L 130.675939 67.619758 
" clip-path="url(#pcd48862d17)" style="fill: none; stroke: #1f77b4; stroke-width: 1.5"/>
   </g>
  </g>
 </g>
 <defs>
  <clipPath id="pcd48862d17">
   <rect x="7.2" y="7.2" width="138.6" height="138.6"/>
  </clipPath>
 </defs>
</svg>
